<?xml version="1.0" encoding="utf-8" standalone="no"?>
<!DOCTYPE svg PUBLIC "-//W3C//DTD SVG 1.1//EN"
  "http://www.w3.org/Graphics/SVG/1.1/DTD/svg11.dtd">
<svg xmlns:xlink="http://www.w3.org/1999/xlink" width="856.809375pt" height="567.0135pt" viewBox="0 0 856.809375 567.0135" xmlns="http://www.w3.org/2000/svg" version="1.1">
 <metadata>
  <rdf:RDF xmlns:dc="http://purl.org/dc/elements/1.1/" xmlns:cc="http://creativecommons.org/ns#" xmlns:rdf="http://www.w3.org/1999/02/22-rdf-syntax-ns#">
   <cc:Work>
    <dc:type rdf:resource="http://purl.org/dc/dcmitype/StillImage"/>
    <dc:date>2025-07-31T16:21:56.894103</dc:date>
    <dc:format>image/svg+xml</dc:format>
    <dc:creator>
     <cc:Agent>
      <dc:title>Matplotlib v3.8.4, https://matplotlib.org/</dc:title>
     </cc:Agent>
    </dc:creator>
   </cc:Work>
  </rdf:RDF>
 </metadata>
 <defs>
  <style type="text/css">*{stroke-linejoin: round; stroke-linecap: butt}</style>
 </defs>
 <g id="figure_1">
  <g id="patch_1">
   <path d="M 0 567.0135 
L 856.809375 567.0135 
L 856.809375 0 
L 0 0 
z
" style="fill: #ffffff"/>
  </g>
  <g id="axes_1">
   <g id="patch_2">
    <path d="M 138.339375 528.305375 
L 842.659375 528.305375 
L 842.659375 38.425375 
L 138.339375 38.425375 
z
" style="fill: #eaeaf2"/>
   </g>
   <g id="matplotlib.axis_1">
    <g id="xtick_1">
     <g id="line2d_1">
      <path d="M 138.339375 528.305375 
L 138.339375 38.425375 
" clip-path="url(#p1dd7b9717c)" style="fill: none; stroke: #ffffff; stroke-linecap: round"/>
     </g>
     <g id="line2d_2"/>
     <g id="text_1">
      <!-- 0.0 -->
      <g style="fill: #262626" transform="translate(131.389375 542.55225) scale(0.1 -0.1)">
       <defs>
        <path id="LiberationSans-30" d="M 3309 2203 
Q 3309 1100 2920 518 
Q 2531 -63 1772 -63 
Q 1013 -63 631 515 
Q 250 1094 250 2203 
Q 250 3338 620 3903 
Q 991 4469 1791 4469 
Q 2569 4469 2939 3897 
Q 3309 3325 3309 2203 
z
M 2738 2203 
Q 2738 3156 2517 3584 
Q 2297 4013 1791 4013 
Q 1272 4013 1045 3591 
Q 819 3169 819 2203 
Q 819 1266 1048 831 
Q 1278 397 1778 397 
Q 2275 397 2506 840 
Q 2738 1284 2738 2203 
z
" transform="scale(0.015625)"/>
        <path id="LiberationSans-2e" d="M 584 0 
L 584 684 
L 1194 684 
L 1194 0 
L 584 0 
z
" transform="scale(0.015625)"/>
       </defs>
       <use xlink:href="#LiberationSans-30"/>
       <use xlink:href="#LiberationSans-2e" x="55.615234"/>
       <use xlink:href="#LiberationSans-30" x="83.398438"/>
      </g>
     </g>
    </g>
    <g id="xtick_2">
     <g id="line2d_3">
      <path d="M 279.203375 528.305375 
L 279.203375 38.425375 
" clip-path="url(#p1dd7b9717c)" style="fill: none; stroke: #ffffff; stroke-linecap: round"/>
     </g>
     <g id="line2d_4"/>
     <g id="text_2">
      <!-- 0.2 -->
      <g style="fill: #262626" transform="translate(272.253375 542.55225) scale(0.1 -0.1)">
       <defs>
        <path id="LiberationSans-32" d="M 322 0 
L 322 397 
Q 481 763 711 1042 
Q 941 1322 1194 1548 
Q 1447 1775 1695 1969 
Q 1944 2163 2144 2356 
Q 2344 2550 2467 2762 
Q 2591 2975 2591 3244 
Q 2591 3606 2378 3806 
Q 2166 4006 1788 4006 
Q 1428 4006 1195 3811 
Q 963 3616 922 3263 
L 347 3316 
Q 409 3844 795 4156 
Q 1181 4469 1788 4469 
Q 2453 4469 2811 4155 
Q 3169 3841 3169 3263 
Q 3169 3006 3051 2753 
Q 2934 2500 2703 2247 
Q 2472 1994 1819 1463 
Q 1459 1169 1246 933 
Q 1034 697 941 478 
L 3238 478 
L 3238 0 
L 322 0 
z
" transform="scale(0.015625)"/>
       </defs>
       <use xlink:href="#LiberationSans-30"/>
       <use xlink:href="#LiberationSans-2e" x="55.615234"/>
       <use xlink:href="#LiberationSans-32" x="83.398438"/>
      </g>
     </g>
    </g>
    <g id="xtick_3">
     <g id="line2d_5">
      <path d="M 420.067375 528.305375 
L 420.067375 38.425375 
" clip-path="url(#p1dd7b9717c)" style="fill: none; stroke: #ffffff; stroke-linecap: round"/>
     </g>
     <g id="line2d_6"/>
     <g id="text_3">
      <!-- 0.4 -->
      <g style="fill: #262626" transform="translate(413.117375 542.55225) scale(0.1 -0.1)">
       <defs>
        <path id="LiberationSans-34" d="M 2753 997 
L 2753 0 
L 2222 0 
L 2222 997 
L 147 997 
L 147 1434 
L 2163 4403 
L 2753 4403 
L 2753 1441 
L 3372 1441 
L 3372 997 
L 2753 997 
z
M 2222 3769 
Q 2216 3750 2134 3603 
Q 2053 3456 2013 3397 
L 884 1734 
L 716 1503 
L 666 1441 
L 2222 1441 
L 2222 3769 
z
" transform="scale(0.015625)"/>
       </defs>
       <use xlink:href="#LiberationSans-30"/>
       <use xlink:href="#LiberationSans-2e" x="55.615234"/>
       <use xlink:href="#LiberationSans-34" x="83.398438"/>
      </g>
     </g>
    </g>
    <g id="xtick_4">
     <g id="line2d_7">
      <path d="M 560.931375 528.305375 
L 560.931375 38.425375 
" clip-path="url(#p1dd7b9717c)" style="fill: none; stroke: #ffffff; stroke-linecap: round"/>
     </g>
     <g id="line2d_8"/>
     <g id="text_4">
      <!-- 0.6 -->
      <g style="fill: #262626" transform="translate(553.981375 542.55225) scale(0.1 -0.1)">
       <defs>
        <path id="LiberationSans-36" d="M 3278 1441 
Q 3278 744 2900 340 
Q 2522 -63 1856 -63 
Q 1113 -63 719 490 
Q 325 1044 325 2100 
Q 325 3244 734 3856 
Q 1144 4469 1900 4469 
Q 2897 4469 3156 3572 
L 2619 3475 
Q 2453 4013 1894 4013 
Q 1413 4013 1148 3564 
Q 884 3116 884 2266 
Q 1038 2550 1316 2698 
Q 1594 2847 1953 2847 
Q 2563 2847 2920 2465 
Q 3278 2084 3278 1441 
z
M 2706 1416 
Q 2706 1894 2472 2153 
Q 2238 2413 1819 2413 
Q 1425 2413 1183 2183 
Q 941 1953 941 1550 
Q 941 1041 1192 716 
Q 1444 391 1838 391 
Q 2244 391 2475 664 
Q 2706 938 2706 1416 
z
" transform="scale(0.015625)"/>
       </defs>
       <use xlink:href="#LiberationSans-30"/>
       <use xlink:href="#LiberationSans-2e" x="55.615234"/>
       <use xlink:href="#LiberationSans-36" x="83.398438"/>
      </g>
     </g>
    </g>
    <g id="xtick_5">
     <g id="line2d_9">
      <path d="M 701.795375 528.305375 
L 701.795375 38.425375 
" clip-path="url(#p1dd7b9717c)" style="fill: none; stroke: #ffffff; stroke-linecap: round"/>
     </g>
     <g id="line2d_10"/>
     <g id="text_5">
      <!-- 0.8 -->
      <g style="fill: #262626" transform="translate(694.845375 542.55225) scale(0.1 -0.1)">
       <defs>
        <path id="LiberationSans-38" d="M 3281 1228 
Q 3281 619 2893 278 
Q 2506 -63 1781 -63 
Q 1075 -63 676 271 
Q 278 606 278 1222 
Q 278 1653 525 1947 
Q 772 2241 1156 2303 
L 1156 2316 
Q 797 2400 589 2681 
Q 381 2963 381 3341 
Q 381 3844 757 4156 
Q 1134 4469 1769 4469 
Q 2419 4469 2795 4162 
Q 3172 3856 3172 3334 
Q 3172 2956 2962 2675 
Q 2753 2394 2391 2322 
L 2391 2309 
Q 2813 2241 3047 1952 
Q 3281 1663 3281 1228 
z
M 2588 3303 
Q 2588 4050 1769 4050 
Q 1372 4050 1164 3862 
Q 956 3675 956 3303 
Q 956 2925 1170 2726 
Q 1384 2528 1775 2528 
Q 2172 2528 2380 2711 
Q 2588 2894 2588 3303 
z
M 2697 1281 
Q 2697 1691 2453 1898 
Q 2209 2106 1769 2106 
Q 1341 2106 1100 1882 
Q 859 1659 859 1269 
Q 859 359 1788 359 
Q 2247 359 2472 579 
Q 2697 800 2697 1281 
z
" transform="scale(0.015625)"/>
       </defs>
       <use xlink:href="#LiberationSans-30"/>
       <use xlink:href="#LiberationSans-2e" x="55.615234"/>
       <use xlink:href="#LiberationSans-38" x="83.398438"/>
      </g>
     </g>
    </g>
    <g id="xtick_6">
     <g id="line2d_11">
      <path d="M 842.659375 528.305375 
L 842.659375 38.425375 
" clip-path="url(#p1dd7b9717c)" style="fill: none; stroke: #ffffff; stroke-linecap: round"/>
     </g>
     <g id="line2d_12"/>
     <g id="text_6">
      <!-- 1.0 -->
      <g style="fill: #262626" transform="translate(835.709375 542.55225) scale(0.1 -0.1)">
       <defs>
        <path id="LiberationSans-31" d="M 488 0 
L 488 478 
L 1609 478 
L 1609 3866 
L 616 3156 
L 616 3688 
L 1656 4403 
L 2175 4403 
L 2175 478 
L 3247 478 
L 3247 0 
L 488 0 
z
" transform="scale(0.015625)"/>
       </defs>
       <use xlink:href="#LiberationSans-31"/>
       <use xlink:href="#LiberationSans-2e" x="55.615234"/>
       <use xlink:href="#LiberationSans-30" x="83.398438"/>
      </g>
     </g>
    </g>
    <g id="text_7">
     <!-- Belief Score (0-1) -->
     <g style="fill: #262626" transform="translate(443.8175 557.3235) scale(0.12 -0.12)">
      <defs>
       <path id="LiberationSans-42" d="M 3931 1241 
Q 3931 653 3503 326 
Q 3075 0 2313 0 
L 525 0 
L 525 4403 
L 2125 4403 
Q 3675 4403 3675 3334 
Q 3675 2944 3456 2678 
Q 3238 2413 2838 2322 
Q 3363 2259 3647 1970 
Q 3931 1681 3931 1241 
z
M 3075 3263 
Q 3075 3619 2831 3772 
Q 2588 3925 2125 3925 
L 1122 3925 
L 1122 2531 
L 2125 2531 
Q 2603 2531 2839 2711 
Q 3075 2891 3075 3263 
z
M 3328 1288 
Q 3328 2066 2234 2066 
L 1122 2066 
L 1122 478 
L 2281 478 
Q 2828 478 3078 681 
Q 3328 884 3328 1288 
z
" transform="scale(0.015625)"/>
       <path id="LiberationSans-65" d="M 863 1572 
Q 863 991 1103 675 
Q 1344 359 1806 359 
Q 2172 359 2392 506 
Q 2613 653 2691 878 
L 3184 738 
Q 2881 -63 1806 -63 
Q 1056 -63 664 384 
Q 272 831 272 1713 
Q 272 2550 664 2997 
Q 1056 3444 1784 3444 
Q 3275 3444 3275 1647 
L 3275 1572 
L 863 1572 
z
M 2694 2003 
Q 2647 2538 2422 2783 
Q 2197 3028 1775 3028 
Q 1366 3028 1127 2754 
Q 888 2481 869 2003 
L 2694 2003 
z
" transform="scale(0.015625)"/>
       <path id="LiberationSans-6c" d="M 431 0 
L 431 4638 
L 994 4638 
L 994 0 
L 431 0 
z
" transform="scale(0.015625)"/>
       <path id="LiberationSans-69" d="M 428 4100 
L 428 4638 
L 991 4638 
L 991 4100 
L 428 4100 
z
M 428 0 
L 428 3381 
L 991 3381 
L 991 0 
L 428 0 
z
" transform="scale(0.015625)"/>
       <path id="LiberationSans-66" d="M 1128 2972 
L 1128 0 
L 566 0 
L 566 2972 
L 91 2972 
L 91 3381 
L 566 3381 
L 566 3763 
Q 566 4225 769 4428 
Q 972 4631 1391 4631 
Q 1625 4631 1788 4594 
L 1788 4166 
Q 1647 4191 1538 4191 
Q 1322 4191 1225 4081 
Q 1128 3972 1128 3684 
L 1128 3381 
L 1788 3381 
L 1788 2972 
L 1128 2972 
z
" transform="scale(0.015625)"/>
       <path id="LiberationSans-20" transform="scale(0.015625)"/>
       <path id="LiberationSans-53" d="M 3975 1216 
Q 3975 606 3498 271 
Q 3022 -63 2156 -63 
Q 547 -63 291 1056 
L 869 1172 
Q 969 775 1294 589 
Q 1619 403 2178 403 
Q 2756 403 3070 601 
Q 3384 800 3384 1184 
Q 3384 1400 3286 1534 
Q 3188 1669 3009 1756 
Q 2831 1844 2584 1903 
Q 2338 1963 2038 2031 
Q 1516 2147 1245 2262 
Q 975 2378 819 2520 
Q 663 2663 580 2853 
Q 497 3044 497 3291 
Q 497 3856 930 4162 
Q 1363 4469 2169 4469 
Q 2919 4469 3316 4239 
Q 3713 4009 3872 3456 
L 3284 3353 
Q 3188 3703 2916 3861 
Q 2644 4019 2163 4019 
Q 1634 4019 1356 3844 
Q 1078 3669 1078 3322 
Q 1078 3119 1186 2986 
Q 1294 2853 1497 2761 
Q 1700 2669 2306 2534 
Q 2509 2488 2711 2439 
Q 2913 2391 3097 2323 
Q 3281 2256 3442 2165 
Q 3603 2075 3722 1944 
Q 3841 1813 3908 1634 
Q 3975 1456 3975 1216 
z
" transform="scale(0.015625)"/>
       <path id="LiberationSans-63" d="M 859 1706 
Q 859 1031 1071 706 
Q 1284 381 1713 381 
Q 2013 381 2214 543 
Q 2416 706 2463 1044 
L 3031 1006 
Q 2966 519 2616 228 
Q 2266 -63 1728 -63 
Q 1019 -63 645 385 
Q 272 834 272 1694 
Q 272 2547 647 2995 
Q 1022 3444 1722 3444 
Q 2241 3444 2583 3175 
Q 2925 2906 3013 2434 
L 2434 2391 
Q 2391 2672 2212 2837 
Q 2034 3003 1706 3003 
Q 1259 3003 1059 2706 
Q 859 2409 859 1706 
z
" transform="scale(0.015625)"/>
       <path id="LiberationSans-6f" d="M 3291 1694 
Q 3291 806 2900 371 
Q 2509 -63 1766 -63 
Q 1025 -63 647 389 
Q 269 841 269 1694 
Q 269 3444 1784 3444 
Q 2559 3444 2925 3017 
Q 3291 2591 3291 1694 
z
M 2700 1694 
Q 2700 2394 2492 2711 
Q 2284 3028 1794 3028 
Q 1300 3028 1079 2704 
Q 859 2381 859 1694 
Q 859 1025 1076 689 
Q 1294 353 1759 353 
Q 2266 353 2483 678 
Q 2700 1003 2700 1694 
z
" transform="scale(0.015625)"/>
       <path id="LiberationSans-72" d="M 444 0 
L 444 2594 
Q 444 2950 425 3381 
L 956 3381 
Q 981 2806 981 2691 
L 994 2691 
Q 1128 3125 1303 3284 
Q 1478 3444 1797 3444 
Q 1909 3444 2025 3413 
L 2025 2897 
Q 1913 2928 1725 2928 
Q 1375 2928 1190 2626 
Q 1006 2325 1006 1763 
L 1006 0 
L 444 0 
z
" transform="scale(0.015625)"/>
       <path id="LiberationSans-28" d="M 397 1663 
Q 397 2566 680 3284 
Q 963 4003 1550 4638 
L 2094 4638 
Q 1509 3988 1236 3256 
Q 963 2525 963 1656 
Q 963 791 1233 62 
Q 1503 -666 2094 -1325 
L 1550 -1325 
Q 959 -688 678 32 
Q 397 753 397 1650 
L 397 1663 
z
" transform="scale(0.015625)"/>
       <path id="LiberationSans-2d" d="M 284 1450 
L 284 1950 
L 1847 1950 
L 1847 1450 
L 284 1450 
z
" transform="scale(0.015625)"/>
       <path id="LiberationSans-29" d="M 1734 1650 
Q 1734 747 1451 28 
Q 1169 -691 581 -1325 
L 38 -1325 
Q 625 -669 897 57 
Q 1169 784 1169 1656 
Q 1169 2528 895 3256 
Q 622 3984 38 4638 
L 581 4638 
Q 1172 4000 1453 3279 
Q 1734 2559 1734 1663 
L 1734 1650 
z
" transform="scale(0.015625)"/>
      </defs>
      <use xlink:href="#LiberationSans-42"/>
      <use xlink:href="#LiberationSans-65" x="66.699219"/>
      <use xlink:href="#LiberationSans-6c" x="122.314453"/>
      <use xlink:href="#LiberationSans-69" x="144.53125"/>
      <use xlink:href="#LiberationSans-65" x="166.748047"/>
      <use xlink:href="#LiberationSans-66" x="222.363281"/>
      <use xlink:href="#LiberationSans-20" x="250.146484"/>
      <use xlink:href="#LiberationSans-53" x="277.929688"/>
      <use xlink:href="#LiberationSans-63" x="344.628906"/>
      <use xlink:href="#LiberationSans-6f" x="394.628906"/>
      <use xlink:href="#LiberationSans-72" x="450.244141"/>
      <use xlink:href="#LiberationSans-65" x="483.544922"/>
      <use xlink:href="#LiberationSans-20" x="539.160156"/>
      <use xlink:href="#LiberationSans-28" x="566.943359"/>
      <use xlink:href="#LiberationSans-30" x="600.244141"/>
      <use xlink:href="#LiberationSans-2d" x="655.859375"/>
      <use xlink:href="#LiberationSans-31" x="689.160156"/>
      <use xlink:href="#LiberationSans-29" x="744.775391"/>
     </g>
    </g>
   </g>
   <g id="matplotlib.axis_2">
    <g id="ytick_1">
     <g id="line2d_13"/>
     <g id="text_8">
      <!-- judicial temperament -->
      <g style="fill: #262626" transform="translate(39.08 91.036813) scale(0.1 -0.1)">
       <defs>
        <path id="LiberationSans-6a" d="M 428 4100 
L 428 4638 
L 991 4638 
L 991 4100 
L 428 4100 
z
M 991 -419 
Q 991 -897 803 -1112 
Q 616 -1328 241 -1328 
Q 0 -1328 -156 -1300 
L -156 -866 
L 38 -884 
Q 253 -884 340 -771 
Q 428 -659 428 -334 
L 428 3381 
L 991 3381 
L 991 -419 
z
" transform="scale(0.015625)"/>
        <path id="LiberationSans-75" d="M 981 3381 
L 981 1238 
Q 981 903 1047 718 
Q 1113 534 1256 453 
Q 1400 372 1678 372 
Q 2084 372 2318 650 
Q 2553 928 2553 1422 
L 2553 3381 
L 3116 3381 
L 3116 722 
Q 3116 131 3134 0 
L 2603 0 
Q 2600 16 2597 84 
Q 2594 153 2589 242 
Q 2584 331 2578 578 
L 2569 578 
Q 2375 228 2120 82 
Q 1866 -63 1488 -63 
Q 931 -63 673 214 
Q 416 491 416 1128 
L 416 3381 
L 981 3381 
z
" transform="scale(0.015625)"/>
        <path id="LiberationSans-64" d="M 2566 544 
Q 2409 219 2151 78 
Q 1894 -63 1513 -63 
Q 872 -63 570 368 
Q 269 800 269 1675 
Q 269 3444 1513 3444 
Q 1897 3444 2153 3303 
Q 2409 3163 2566 2856 
L 2572 2856 
L 2566 3234 
L 2566 4638 
L 3128 4638 
L 3128 697 
Q 3128 169 3147 0 
L 2609 0 
Q 2600 50 2589 231 
Q 2578 413 2578 544 
L 2566 544 
z
M 859 1694 
Q 859 984 1046 678 
Q 1234 372 1656 372 
Q 2134 372 2350 703 
Q 2566 1034 2566 1731 
Q 2566 2403 2350 2715 
Q 2134 3028 1663 3028 
Q 1238 3028 1048 2714 
Q 859 2400 859 1694 
z
" transform="scale(0.015625)"/>
        <path id="LiberationSans-61" d="M 1294 -63 
Q 784 -63 528 206 
Q 272 475 272 944 
Q 272 1469 617 1750 
Q 963 2031 1731 2050 
L 2491 2063 
L 2491 2247 
Q 2491 2659 2316 2837 
Q 2141 3016 1766 3016 
Q 1388 3016 1216 2887 
Q 1044 2759 1009 2478 
L 422 2531 
Q 566 3444 1778 3444 
Q 2416 3444 2737 3151 
Q 3059 2859 3059 2306 
L 3059 850 
Q 3059 600 3125 473 
Q 3191 347 3375 347 
Q 3456 347 3559 369 
L 3559 19 
Q 3347 -31 3125 -31 
Q 2813 -31 2670 133 
Q 2528 297 2509 647 
L 2491 647 
Q 2275 259 1989 98 
Q 1703 -63 1294 -63 
z
M 1422 359 
Q 1731 359 1972 500 
Q 2213 641 2352 886 
Q 2491 1131 2491 1391 
L 2491 1669 
L 1875 1656 
Q 1478 1650 1273 1575 
Q 1069 1500 959 1344 
Q 850 1188 850 934 
Q 850 659 998 509 
Q 1147 359 1422 359 
z
" transform="scale(0.015625)"/>
        <path id="LiberationSans-74" d="M 1731 25 
Q 1453 -50 1163 -50 
Q 488 -50 488 716 
L 488 2972 
L 97 2972 
L 97 3381 
L 509 3381 
L 675 4138 
L 1050 4138 
L 1050 3381 
L 1675 3381 
L 1675 2972 
L 1050 2972 
L 1050 838 
Q 1050 594 1129 495 
Q 1209 397 1406 397 
Q 1519 397 1731 441 
L 1731 25 
z
" transform="scale(0.015625)"/>
        <path id="LiberationSans-6d" d="M 2400 0 
L 2400 2144 
Q 2400 2634 2265 2821 
Q 2131 3009 1781 3009 
Q 1422 3009 1212 2734 
Q 1003 2459 1003 1959 
L 1003 0 
L 444 0 
L 444 2659 
Q 444 3250 425 3381 
L 956 3381 
Q 959 3366 962 3297 
Q 966 3228 970 3139 
Q 975 3050 981 2803 
L 991 2803 
Q 1172 3163 1406 3303 
Q 1641 3444 1978 3444 
Q 2363 3444 2586 3291 
Q 2809 3138 2897 2803 
L 2906 2803 
Q 3081 3144 3329 3294 
Q 3578 3444 3931 3444 
Q 4444 3444 4676 3166 
Q 4909 2888 4909 2253 
L 4909 0 
L 4353 0 
L 4353 2144 
Q 4353 2634 4218 2821 
Q 4084 3009 3734 3009 
Q 3366 3009 3161 2736 
Q 2956 2463 2956 1959 
L 2956 0 
L 2400 0 
z
" transform="scale(0.015625)"/>
        <path id="LiberationSans-70" d="M 3291 1706 
Q 3291 -63 2047 -63 
Q 1266 -63 997 525 
L 981 525 
Q 994 500 994 -6 
L 994 -1328 
L 431 -1328 
L 431 2691 
Q 431 3213 413 3381 
L 956 3381 
Q 959 3369 965 3292 
Q 972 3216 980 3056 
Q 988 2897 988 2838 
L 1000 2838 
Q 1150 3150 1397 3295 
Q 1644 3441 2047 3441 
Q 2672 3441 2981 3022 
Q 3291 2603 3291 1706 
z
M 2700 1694 
Q 2700 2400 2509 2703 
Q 2319 3006 1903 3006 
Q 1569 3006 1380 2865 
Q 1191 2725 1092 2426 
Q 994 2128 994 1650 
Q 994 984 1206 668 
Q 1419 353 1897 353 
Q 2316 353 2508 661 
Q 2700 969 2700 1694 
z
" transform="scale(0.015625)"/>
        <path id="LiberationSans-6e" d="M 2578 0 
L 2578 2144 
Q 2578 2478 2512 2662 
Q 2447 2847 2303 2928 
Q 2159 3009 1881 3009 
Q 1475 3009 1240 2731 
Q 1006 2453 1006 1959 
L 1006 0 
L 444 0 
L 444 2659 
Q 444 3250 425 3381 
L 956 3381 
Q 959 3366 962 3297 
Q 966 3228 970 3139 
Q 975 3050 981 2803 
L 991 2803 
Q 1184 3153 1439 3298 
Q 1694 3444 2072 3444 
Q 2628 3444 2886 3167 
Q 3144 2891 3144 2253 
L 3144 0 
L 2578 0 
z
" transform="scale(0.015625)"/>
       </defs>
       <use xlink:href="#LiberationSans-6a"/>
       <use xlink:href="#LiberationSans-75" x="22.216797"/>
       <use xlink:href="#LiberationSans-64" x="77.832031"/>
       <use xlink:href="#LiberationSans-69" x="133.447266"/>
       <use xlink:href="#LiberationSans-63" x="155.664062"/>
       <use xlink:href="#LiberationSans-69" x="205.664062"/>
       <use xlink:href="#LiberationSans-61" x="227.880859"/>
       <use xlink:href="#LiberationSans-6c" x="283.496094"/>
       <use xlink:href="#LiberationSans-20" x="305.712891"/>
       <use xlink:href="#LiberationSans-74" x="333.496094"/>
       <use xlink:href="#LiberationSans-65" x="361.279297"/>
       <use xlink:href="#LiberationSans-6d" x="416.894531"/>
       <use xlink:href="#LiberationSans-70" x="500.195312"/>
       <use xlink:href="#LiberationSans-65" x="555.810547"/>
       <use xlink:href="#LiberationSans-72" x="611.425781"/>
       <use xlink:href="#LiberationSans-61" x="644.726562"/>
       <use xlink:href="#LiberationSans-6d" x="700.341797"/>
       <use xlink:href="#LiberationSans-65" x="783.642578"/>
       <use xlink:href="#LiberationSans-6e" x="839.257812"/>
       <use xlink:href="#LiberationSans-74" x="894.873047"/>
      </g>
     </g>
    </g>
    <g id="ytick_2">
     <g id="line2d_14"/>
     <g id="text_9">
      <!-- precedent awareness -->
      <g style="fill: #262626" transform="translate(35.731563 189.012813) scale(0.1 -0.1)">
       <defs>
        <path id="LiberationSans-77" d="M 3669 0 
L 3016 0 
L 2425 2391 
L 2313 2919 
Q 2284 2778 2225 2514 
Q 2166 2250 1588 0 
L 938 0 
L -9 3381 
L 547 3381 
L 1119 1084 
Q 1141 1009 1253 466 
L 1306 697 
L 2013 3381 
L 2616 3381 
L 3206 1059 
L 3350 466 
L 3447 900 
L 4088 3381 
L 4638 3381 
L 3669 0 
z
" transform="scale(0.015625)"/>
        <path id="LiberationSans-73" d="M 2969 934 
Q 2969 456 2608 196 
Q 2247 -63 1597 -63 
Q 966 -63 623 145 
Q 281 353 178 794 
L 675 891 
Q 747 619 972 492 
Q 1197 366 1597 366 
Q 2025 366 2223 497 
Q 2422 628 2422 891 
Q 2422 1091 2284 1216 
Q 2147 1341 1841 1422 
L 1438 1528 
Q 953 1653 748 1773 
Q 544 1894 428 2066 
Q 313 2238 313 2488 
Q 313 2950 642 3192 
Q 972 3434 1603 3434 
Q 2163 3434 2492 3237 
Q 2822 3041 2909 2606 
L 2403 2544 
Q 2356 2769 2151 2889 
Q 1947 3009 1603 3009 
Q 1222 3009 1040 2893 
Q 859 2778 859 2544 
Q 859 2400 934 2306 
Q 1009 2213 1156 2147 
Q 1303 2081 1775 1966 
Q 2222 1853 2419 1758 
Q 2616 1663 2730 1547 
Q 2844 1431 2906 1279 
Q 2969 1128 2969 934 
z
" transform="scale(0.015625)"/>
       </defs>
       <use xlink:href="#LiberationSans-70"/>
       <use xlink:href="#LiberationSans-72" x="55.615234"/>
       <use xlink:href="#LiberationSans-65" x="88.916016"/>
       <use xlink:href="#LiberationSans-63" x="144.53125"/>
       <use xlink:href="#LiberationSans-65" x="194.53125"/>
       <use xlink:href="#LiberationSans-64" x="250.146484"/>
       <use xlink:href="#LiberationSans-65" x="305.761719"/>
       <use xlink:href="#LiberationSans-6e" x="361.376953"/>
       <use xlink:href="#LiberationSans-74" x="416.992188"/>
       <use xlink:href="#LiberationSans-20" x="444.775391"/>
       <use xlink:href="#LiberationSans-61" x="472.558594"/>
       <use xlink:href="#LiberationSans-77" x="528.173828"/>
       <use xlink:href="#LiberationSans-61" x="600.390625"/>
       <use xlink:href="#LiberationSans-72" x="656.005859"/>
       <use xlink:href="#LiberationSans-65" x="689.306641"/>
       <use xlink:href="#LiberationSans-6e" x="744.921875"/>
       <use xlink:href="#LiberationSans-65" x="800.537109"/>
       <use xlink:href="#LiberationSans-73" x="856.152344"/>
       <use xlink:href="#LiberationSans-73" x="906.152344"/>
      </g>
     </g>
    </g>
    <g id="ytick_3">
     <g id="line2d_15"/>
     <g id="text_10">
      <!-- constitutional knowledge -->
      <g style="fill: #262626" transform="translate(22.38625 286.988813) scale(0.1 -0.1)">
       <defs>
        <path id="LiberationSans-6b" d="M 2550 0 
L 1406 1544 
L 994 1203 
L 994 0 
L 431 0 
L 431 4638 
L 994 4638 
L 994 1741 
L 2478 3381 
L 3138 3381 
L 1766 1928 
L 3209 0 
L 2550 0 
z
" transform="scale(0.015625)"/>
        <path id="LiberationSans-67" d="M 1713 -1328 
Q 1159 -1328 831 -1111 
Q 503 -894 409 -494 
L 975 -413 
Q 1031 -647 1223 -773 
Q 1416 -900 1728 -900 
Q 2569 -900 2569 84 
L 2569 628 
L 2563 628 
Q 2403 303 2125 139 
Q 1847 -25 1475 -25 
Q 853 -25 561 387 
Q 269 800 269 1684 
Q 269 2581 583 3007 
Q 897 3434 1538 3434 
Q 1897 3434 2161 3270 
Q 2425 3106 2569 2803 
L 2575 2803 
Q 2575 2897 2587 3128 
Q 2600 3359 2613 3381 
L 3147 3381 
Q 3128 3213 3128 2681 
L 3128 97 
Q 3128 -1328 1713 -1328 
z
M 2569 1691 
Q 2569 2103 2456 2401 
Q 2344 2700 2139 2858 
Q 1934 3016 1675 3016 
Q 1244 3016 1047 2703 
Q 850 2391 850 1691 
Q 850 997 1034 694 
Q 1219 391 1666 391 
Q 1931 391 2137 547 
Q 2344 703 2456 995 
Q 2569 1288 2569 1691 
z
" transform="scale(0.015625)"/>
       </defs>
       <use xlink:href="#LiberationSans-63"/>
       <use xlink:href="#LiberationSans-6f" x="50"/>
       <use xlink:href="#LiberationSans-6e" x="105.615234"/>
       <use xlink:href="#LiberationSans-73" x="161.230469"/>
       <use xlink:href="#LiberationSans-74" x="211.230469"/>
       <use xlink:href="#LiberationSans-69" x="239.013672"/>
       <use xlink:href="#LiberationSans-74" x="261.230469"/>
       <use xlink:href="#LiberationSans-75" x="289.013672"/>
       <use xlink:href="#LiberationSans-74" x="344.628906"/>
       <use xlink:href="#LiberationSans-69" x="372.412109"/>
       <use xlink:href="#LiberationSans-6f" x="394.628906"/>
       <use xlink:href="#LiberationSans-6e" x="450.244141"/>
       <use xlink:href="#LiberationSans-61" x="505.859375"/>
       <use xlink:href="#LiberationSans-6c" x="561.474609"/>
       <use xlink:href="#LiberationSans-20" x="583.691406"/>
       <use xlink:href="#LiberationSans-6b" x="611.474609"/>
       <use xlink:href="#LiberationSans-6e" x="661.474609"/>
       <use xlink:href="#LiberationSans-6f" x="717.089844"/>
       <use xlink:href="#LiberationSans-77" x="772.705078"/>
       <use xlink:href="#LiberationSans-6c" x="844.921875"/>
       <use xlink:href="#LiberationSans-65" x="867.138672"/>
       <use xlink:href="#LiberationSans-64" x="922.753906"/>
       <use xlink:href="#LiberationSans-67" x="978.369141"/>
       <use xlink:href="#LiberationSans-65" x="1033.984375"/>
      </g>
     </g>
    </g>
    <g id="ytick_4">
     <g id="line2d_16"/>
     <g id="text_11">
      <!-- advocacy effectiveness -->
      <g style="fill: #262626" transform="translate(28.131563 384.964812) scale(0.1 -0.1)">
       <defs>
        <path id="LiberationSans-76" d="M 1916 0 
L 1250 0 
L 22 3381 
L 622 3381 
L 1366 1181 
Q 1406 1056 1581 441 
L 1691 806 
L 1813 1175 
L 2581 3381 
L 3178 3381 
L 1916 0 
z
" transform="scale(0.015625)"/>
        <path id="LiberationSans-79" d="M 597 -1328 
Q 366 -1328 209 -1294 
L 209 -872 
Q 328 -891 472 -891 
Q 997 -891 1303 -119 
L 1356 16 
L 16 3381 
L 616 3381 
L 1328 1513 
Q 1344 1469 1366 1408 
Q 1388 1347 1506 1000 
Q 1625 653 1634 613 
L 1853 1228 
L 2594 3381 
L 3188 3381 
L 1888 0 
Q 1678 -541 1497 -805 
Q 1316 -1069 1095 -1198 
Q 875 -1328 597 -1328 
z
" transform="scale(0.015625)"/>
       </defs>
       <use xlink:href="#LiberationSans-61"/>
       <use xlink:href="#LiberationSans-64" x="55.615234"/>
       <use xlink:href="#LiberationSans-76" x="111.230469"/>
       <use xlink:href="#LiberationSans-6f" x="161.230469"/>
       <use xlink:href="#LiberationSans-63" x="216.845703"/>
       <use xlink:href="#LiberationSans-61" x="266.845703"/>
       <use xlink:href="#LiberationSans-63" x="322.460938"/>
       <use xlink:href="#LiberationSans-79" x="372.460938"/>
       <use xlink:href="#LiberationSans-20" x="422.460938"/>
       <use xlink:href="#LiberationSans-65" x="450.244141"/>
       <use xlink:href="#LiberationSans-66" x="505.859375"/>
       <use xlink:href="#LiberationSans-66" x="531.892578"/>
       <use xlink:href="#LiberationSans-65" x="559.675781"/>
       <use xlink:href="#LiberationSans-63" x="615.291016"/>
       <use xlink:href="#LiberationSans-74" x="665.291016"/>
       <use xlink:href="#LiberationSans-69" x="693.074219"/>
       <use xlink:href="#LiberationSans-76" x="715.291016"/>
       <use xlink:href="#LiberationSans-65" x="765.291016"/>
       <use xlink:href="#LiberationSans-6e" x="820.90625"/>
       <use xlink:href="#LiberationSans-65" x="876.521484"/>
       <use xlink:href="#LiberationSans-73" x="932.136719"/>
       <use xlink:href="#LiberationSans-73" x="982.136719"/>
      </g>
     </g>
    </g>
    <g id="ytick_5">
     <g id="line2d_17"/>
     <g id="text_12">
      <!-- legal reasoning ability -->
      <g style="fill: #262626" transform="translate(35.17375 482.940812) scale(0.1 -0.1)">
       <defs>
        <path id="LiberationSans-62" d="M 3291 1706 
Q 3291 -63 2047 -63 
Q 1663 -63 1408 76 
Q 1153 216 994 525 
L 988 525 
Q 988 428 975 229 
Q 963 31 956 0 
L 413 0 
Q 431 169 431 697 
L 431 4638 
L 994 4638 
L 994 3316 
Q 994 3113 981 2838 
L 994 2838 
Q 1150 3163 1408 3303 
Q 1666 3444 2047 3444 
Q 2688 3444 2989 3012 
Q 3291 2581 3291 1706 
z
M 2700 1688 
Q 2700 2397 2512 2703 
Q 2325 3009 1903 3009 
Q 1428 3009 1211 2684 
Q 994 2359 994 1653 
Q 994 988 1206 670 
Q 1419 353 1897 353 
Q 2322 353 2511 667 
Q 2700 981 2700 1688 
z
" transform="scale(0.015625)"/>
       </defs>
       <use xlink:href="#LiberationSans-6c"/>
       <use xlink:href="#LiberationSans-65" x="22.216797"/>
       <use xlink:href="#LiberationSans-67" x="77.832031"/>
       <use xlink:href="#LiberationSans-61" x="133.447266"/>
       <use xlink:href="#LiberationSans-6c" x="189.0625"/>
       <use xlink:href="#LiberationSans-20" x="211.279297"/>
       <use xlink:href="#LiberationSans-72" x="239.0625"/>
       <use xlink:href="#LiberationSans-65" x="272.363281"/>
       <use xlink:href="#LiberationSans-61" x="327.978516"/>
       <use xlink:href="#LiberationSans-73" x="383.59375"/>
       <use xlink:href="#LiberationSans-6f" x="433.59375"/>
       <use xlink:href="#LiberationSans-6e" x="489.208984"/>
       <use xlink:href="#LiberationSans-69" x="544.824219"/>
       <use xlink:href="#LiberationSans-6e" x="567.041016"/>
       <use xlink:href="#LiberationSans-67" x="622.65625"/>
       <use xlink:href="#LiberationSans-20" x="678.271484"/>
       <use xlink:href="#LiberationSans-61" x="706.054688"/>
       <use xlink:href="#LiberationSans-62" x="761.669922"/>
       <use xlink:href="#LiberationSans-69" x="817.285156"/>
       <use xlink:href="#LiberationSans-6c" x="839.501953"/>
       <use xlink:href="#LiberationSans-69" x="861.71875"/>
       <use xlink:href="#LiberationSans-74" x="883.935547"/>
       <use xlink:href="#LiberationSans-79" x="911.71875"/>
      </g>
     </g>
    </g>
    <g id="text_13">
     <!-- Character Attributes -->
     <g style="fill: #262626" transform="translate(15.89625 336.387563) rotate(-90) scale(0.12 -0.12)">
      <defs>
       <path id="LiberationSans-43" d="M 2475 3981 
Q 1744 3981 1337 3511 
Q 931 3041 931 2222 
Q 931 1413 1354 920 
Q 1778 428 2500 428 
Q 3425 428 3891 1344 
L 4378 1100 
Q 4106 531 3614 234 
Q 3122 -63 2472 -63 
Q 1806 -63 1320 214 
Q 834 491 579 1005 
Q 325 1519 325 2222 
Q 325 3275 894 3872 
Q 1463 4469 2469 4469 
Q 3172 4469 3644 4194 
Q 4116 3919 4338 3378 
L 3772 3191 
Q 3619 3575 3280 3778 
Q 2941 3981 2475 3981 
z
" transform="scale(0.015625)"/>
       <path id="LiberationSans-68" d="M 991 2803 
Q 1172 3134 1426 3289 
Q 1681 3444 2072 3444 
Q 2622 3444 2883 3170 
Q 3144 2897 3144 2253 
L 3144 0 
L 2578 0 
L 2578 2144 
Q 2578 2500 2512 2673 
Q 2447 2847 2297 2928 
Q 2147 3009 1881 3009 
Q 1484 3009 1245 2734 
Q 1006 2459 1006 1994 
L 1006 0 
L 444 0 
L 444 4638 
L 1006 4638 
L 1006 3431 
Q 1006 3241 995 3037 
Q 984 2834 981 2803 
L 991 2803 
z
" transform="scale(0.015625)"/>
       <path id="LiberationSans-41" d="M 3647 0 
L 3144 1288 
L 1138 1288 
L 631 0 
L 13 0 
L 1809 4403 
L 2488 4403 
L 4256 0 
L 3647 0 
z
M 2141 3953 
L 2113 3866 
Q 2034 3606 1881 3200 
L 1319 1753 
L 2966 1753 
L 2400 3206 
Q 2313 3422 2225 3694 
L 2141 3953 
z
" transform="scale(0.015625)"/>
      </defs>
      <use xlink:href="#LiberationSans-43"/>
      <use xlink:href="#LiberationSans-68" x="72.216797"/>
      <use xlink:href="#LiberationSans-61" x="127.832031"/>
      <use xlink:href="#LiberationSans-72" x="183.447266"/>
      <use xlink:href="#LiberationSans-61" x="216.748047"/>
      <use xlink:href="#LiberationSans-63" x="272.363281"/>
      <use xlink:href="#LiberationSans-74" x="322.363281"/>
      <use xlink:href="#LiberationSans-65" x="350.146484"/>
      <use xlink:href="#LiberationSans-72" x="405.761719"/>
      <use xlink:href="#LiberationSans-20" x="439.0625"/>
      <use xlink:href="#LiberationSans-41" x="461.345703"/>
      <use xlink:href="#LiberationSans-74" x="528.044922"/>
      <use xlink:href="#LiberationSans-74" x="555.828125"/>
      <use xlink:href="#LiberationSans-72" x="583.611328"/>
      <use xlink:href="#LiberationSans-69" x="616.912109"/>
      <use xlink:href="#LiberationSans-62" x="639.128906"/>
      <use xlink:href="#LiberationSans-75" x="694.744141"/>
      <use xlink:href="#LiberationSans-74" x="750.359375"/>
      <use xlink:href="#LiberationSans-65" x="778.142578"/>
      <use xlink:href="#LiberationSans-73" x="833.757812"/>
     </g>
    </g>
   </g>
   <g id="patch_3">
    <path d="M 772.227375 48.222975 
L 772.227375 126.603775 
L 772.227375 126.603775 
L 772.227375 48.222975 
L 772.227375 48.222975 
z
" clip-path="url(#p1dd7b9717c)" style="fill: #e68193; stroke: #6c6c6c; stroke-linejoin: miter"/>
   </g>
   <g id="line2d_18">
    <path d="M 772.227375 87.413375 
L 772.227375 87.413375 
" clip-path="url(#p1dd7b9717c)" style="fill: none; stroke: #6c6c6c"/>
   </g>
   <g id="line2d_19">
    <path d="M 772.227375 87.413375 
L 772.227375 87.413375 
" clip-path="url(#p1dd7b9717c)" style="fill: none; stroke: #6c6c6c"/>
   </g>
   <g id="line2d_20">
    <path d="M 772.227375 67.818175 
L 772.227375 107.008575 
" clip-path="url(#p1dd7b9717c)" style="fill: none; stroke: #6c6c6c; stroke-linecap: round"/>
   </g>
   <g id="line2d_21">
    <path d="M 772.227375 67.818175 
L 772.227375 107.008575 
" clip-path="url(#p1dd7b9717c)" style="fill: none; stroke: #6c6c6c; stroke-linecap: round"/>
   </g>
   <g id="line2d_22">
    <defs>
     <path id="m7864c737f9" d="M 0 3.5 
C 0.928211 3.5 1.81853 3.131218 2.474874 2.474874 
C 3.131218 1.81853 3.5 0.928211 3.5 0 
C 3.5 -0.928211 3.131218 -1.81853 2.474874 -2.474874 
C 1.81853 -3.131218 0.928211 -3.5 0 -3.5 
C -0.928211 -3.5 -1.81853 -3.131218 -2.474874 -2.474874 
C -3.131218 -1.81853 -3.5 -0.928211 -3.5 0 
C -3.5 0.928211 -3.131218 1.81853 -2.474874 2.474874 
C -1.81853 3.131218 -0.928211 3.5 0 3.5 
z
" style="stroke: #6c6c6c"/>
    </defs>
    <g clip-path="url(#p1dd7b9717c)">
     <use xlink:href="#m7864c737f9" x="138.339375" y="87.413375" style="fill-opacity: 0; stroke: #6c6c6c"/>
    </g>
   </g>
   <g id="patch_4">
    <path d="M 772.227375 146.198975 
L 772.227375 224.579775 
L 772.227375 224.579775 
L 772.227375 146.198975 
L 772.227375 146.198975 
z
" clip-path="url(#p1dd7b9717c)" style="fill: #e68193; stroke: #6c6c6c; stroke-linejoin: miter"/>
   </g>
   <g id="line2d_23">
    <path d="M 772.227375 185.389375 
L 772.227375 185.389375 
" clip-path="url(#p1dd7b9717c)" style="fill: none; stroke: #6c6c6c"/>
   </g>
   <g id="line2d_24">
    <path d="M 772.227375 185.389375 
L 772.227375 185.389375 
" clip-path="url(#p1dd7b9717c)" style="fill: none; stroke: #6c6c6c"/>
   </g>
   <g id="line2d_25">
    <path d="M 772.227375 165.794175 
L 772.227375 204.984575 
" clip-path="url(#p1dd7b9717c)" style="fill: none; stroke: #6c6c6c; stroke-linecap: round"/>
   </g>
   <g id="line2d_26">
    <path d="M 772.227375 165.794175 
L 772.227375 204.984575 
" clip-path="url(#p1dd7b9717c)" style="fill: none; stroke: #6c6c6c; stroke-linecap: round"/>
   </g>
   <g id="line2d_27"/>
   <g id="patch_5">
    <path d="M 772.227375 244.174975 
L 772.227375 322.555775 
L 772.227375 322.555775 
L 772.227375 244.174975 
L 772.227375 244.174975 
z
" clip-path="url(#p1dd7b9717c)" style="fill: #e68193; stroke: #6c6c6c; stroke-linejoin: miter"/>
   </g>
   <g id="line2d_28">
    <path d="M 772.227375 283.365375 
L 772.227375 283.365375 
" clip-path="url(#p1dd7b9717c)" style="fill: none; stroke: #6c6c6c"/>
   </g>
   <g id="line2d_29">
    <path d="M 772.227375 283.365375 
L 772.227375 283.365375 
" clip-path="url(#p1dd7b9717c)" style="fill: none; stroke: #6c6c6c"/>
   </g>
   <g id="line2d_30">
    <path d="M 772.227375 263.770175 
L 772.227375 302.960575 
" clip-path="url(#p1dd7b9717c)" style="fill: none; stroke: #6c6c6c; stroke-linecap: round"/>
   </g>
   <g id="line2d_31">
    <path d="M 772.227375 263.770175 
L 772.227375 302.960575 
" clip-path="url(#p1dd7b9717c)" style="fill: none; stroke: #6c6c6c; stroke-linecap: round"/>
   </g>
   <g id="line2d_32"/>
   <g id="patch_6">
    <path d="M 772.227375 342.150975 
L 772.227375 420.531775 
L 772.227375 420.531775 
L 772.227375 342.150975 
L 772.227375 342.150975 
z
" clip-path="url(#p1dd7b9717c)" style="fill: #e68193; stroke: #6c6c6c; stroke-linejoin: miter"/>
   </g>
   <g id="line2d_33">
    <path d="M 772.227375 381.341375 
L 772.227375 381.341375 
" clip-path="url(#p1dd7b9717c)" style="fill: none; stroke: #6c6c6c"/>
   </g>
   <g id="line2d_34">
    <path d="M 772.227375 381.341375 
L 772.227375 381.341375 
" clip-path="url(#p1dd7b9717c)" style="fill: none; stroke: #6c6c6c"/>
   </g>
   <g id="line2d_35">
    <path d="M 772.227375 361.746175 
L 772.227375 400.936575 
" clip-path="url(#p1dd7b9717c)" style="fill: none; stroke: #6c6c6c; stroke-linecap: round"/>
   </g>
   <g id="line2d_36">
    <path d="M 772.227375 361.746175 
L 772.227375 400.936575 
" clip-path="url(#p1dd7b9717c)" style="fill: none; stroke: #6c6c6c; stroke-linecap: round"/>
   </g>
   <g id="line2d_37">
    <g clip-path="url(#p1dd7b9717c)">
     <use xlink:href="#m7864c737f9" x="842.659375" y="381.341375" style="fill-opacity: 0; stroke: #6c6c6c"/>
    </g>
   </g>
   <g id="patch_7">
    <path d="M 772.227375 440.126975 
L 772.227375 518.507775 
L 772.227375 518.507775 
L 772.227375 440.126975 
L 772.227375 440.126975 
z
" clip-path="url(#p1dd7b9717c)" style="fill: #e68193; stroke: #6c6c6c; stroke-linejoin: miter"/>
   </g>
   <g id="line2d_38">
    <path d="M 772.227375 479.317375 
L 772.227375 479.317375 
" clip-path="url(#p1dd7b9717c)" style="fill: none; stroke: #6c6c6c"/>
   </g>
   <g id="line2d_39">
    <path d="M 772.227375 479.317375 
L 772.227375 479.317375 
" clip-path="url(#p1dd7b9717c)" style="fill: none; stroke: #6c6c6c"/>
   </g>
   <g id="line2d_40">
    <path d="M 772.227375 459.722175 
L 772.227375 498.912575 
" clip-path="url(#p1dd7b9717c)" style="fill: none; stroke: #6c6c6c; stroke-linecap: round"/>
   </g>
   <g id="line2d_41">
    <path d="M 772.227375 459.722175 
L 772.227375 498.912575 
" clip-path="url(#p1dd7b9717c)" style="fill: none; stroke: #6c6c6c; stroke-linecap: round"/>
   </g>
   <g id="line2d_42">
    <g clip-path="url(#p1dd7b9717c)">
     <use xlink:href="#m7864c737f9" x="842.659375" y="479.317375" style="fill-opacity: 0; stroke: #6c6c6c"/>
    </g>
   </g>
   <g id="line2d_43">
    <path d="M 772.227375 48.222975 
L 772.227375 126.603775 
" clip-path="url(#p1dd7b9717c)" style="fill: none; stroke: #6c6c6c"/>
   </g>
   <g id="line2d_44">
    <path d="M 772.227375 146.198975 
L 772.227375 224.579775 
" clip-path="url(#p1dd7b9717c)" style="fill: none; stroke: #6c6c6c"/>
   </g>
   <g id="line2d_45">
    <path d="M 772.227375 244.174975 
L 772.227375 322.555775 
" clip-path="url(#p1dd7b9717c)" style="fill: none; stroke: #6c6c6c"/>
   </g>
   <g id="line2d_46">
    <path d="M 772.227375 342.150975 
L 772.227375 420.531775 
" clip-path="url(#p1dd7b9717c)" style="fill: none; stroke: #6c6c6c"/>
   </g>
   <g id="line2d_47">
    <path d="M 772.227375 440.126975 
L 772.227375 518.507775 
" clip-path="url(#p1dd7b9717c)" style="fill: none; stroke: #6c6c6c"/>
   </g>
   <g id="patch_8">
    <path d="M 138.339375 528.305375 
L 138.339375 38.425375 
" style="fill: none"/>
   </g>
   <g id="patch_9">
    <path d="M 842.659375 528.305375 
L 842.659375 38.425375 
" style="fill: none"/>
   </g>
   <g id="patch_10">
    <path d="M 138.339375 528.305375 
L 842.659375 528.305375 
" style="fill: none"/>
   </g>
   <g id="patch_11">
    <path d="M 138.339375 38.425375 
L 842.659375 38.425375 
" style="fill: none"/>
   </g>
   <g id="text_14">
    <g id="patch_12">
     <path d="M 704.870724 95.074313 
L 724.331662 95.074313 
Q 727.331662 95.074313 727.331662 92.074313 
L 727.331662 82.752438 
Q 727.331662 79.752438 724.331662 79.752438 
L 704.870724 79.752438 
Q 701.870724 79.752438 701.870724 82.752438 
L 701.870724 92.074313 
Q 701.870724 95.074313 704.870724 95.074313 
z
" style="fill: #ffffff; opacity: 0.8; stroke: #000000; stroke-width: 0.3; stroke-linejoin: miter"/>
    </g>
    <!-- 0.82 -->
    <g style="fill: #262626" transform="translate(704.870724 89.999313) scale(0.1 -0.1)">
     <use xlink:href="#LiberationSans-30"/>
     <use xlink:href="#LiberationSans-2e" x="55.615234"/>
     <use xlink:href="#LiberationSans-38" x="83.398438"/>
     <use xlink:href="#LiberationSans-32" x="139.013672"/>
    </g>
   </g>
   <g id="text_15">
    <g id="patch_13">
     <path d="M 762.496906 193.050313 
L 781.957844 193.050313 
Q 784.957844 193.050313 784.957844 190.050313 
L 784.957844 180.728438 
Q 784.957844 177.728438 781.957844 177.728438 
L 762.496906 177.728438 
Q 759.496906 177.728438 759.496906 180.728438 
L 759.496906 190.050313 
Q 759.496906 193.050313 762.496906 193.050313 
z
" style="fill: #ffffff; opacity: 0.8; stroke: #000000; stroke-width: 0.3; stroke-linejoin: miter"/>
    </g>
    <!-- 0.90 -->
    <g style="fill: #262626" transform="translate(762.496906 187.975313) scale(0.1 -0.1)">
     <defs>
      <path id="LiberationSans-39" d="M 3256 2291 
Q 3256 1156 2842 546 
Q 2428 -63 1663 -63 
Q 1147 -63 836 154 
Q 525 372 391 856 
L 928 941 
Q 1097 391 1672 391 
Q 2156 391 2422 841 
Q 2688 1291 2700 2125 
Q 2575 1844 2272 1673 
Q 1969 1503 1606 1503 
Q 1013 1503 656 1909 
Q 300 2316 300 2988 
Q 300 3678 687 4073 
Q 1075 4469 1766 4469 
Q 2500 4469 2878 3925 
Q 3256 3381 3256 2291 
z
M 2644 2834 
Q 2644 3366 2400 3689 
Q 2156 4013 1747 4013 
Q 1341 4013 1106 3736 
Q 872 3459 872 2988 
Q 872 2506 1106 2226 
Q 1341 1947 1741 1947 
Q 1984 1947 2193 2058 
Q 2403 2169 2523 2372 
Q 2644 2575 2644 2834 
z
" transform="scale(0.015625)"/>
     </defs>
     <use xlink:href="#LiberationSans-30"/>
     <use xlink:href="#LiberationSans-2e" x="55.615234"/>
     <use xlink:href="#LiberationSans-39" x="83.398438"/>
     <use xlink:href="#LiberationSans-30" x="139.013672"/>
    </g>
   </g>
   <g id="text_16">
    <g id="patch_14">
     <path d="M 762.496906 291.026313 
L 781.957844 291.026313 
Q 784.957844 291.026313 784.957844 288.026313 
L 784.957844 278.704438 
Q 784.957844 275.704438 781.957844 275.704438 
L 762.496906 275.704438 
Q 759.496906 275.704438 759.496906 278.704438 
L 759.496906 288.026313 
Q 759.496906 291.026313 762.496906 291.026313 
z
" style="fill: #ffffff; opacity: 0.8; stroke: #000000; stroke-width: 0.3; stroke-linejoin: miter"/>
    </g>
    <!-- 0.90 -->
    <g style="fill: #262626" transform="translate(762.496906 285.951313) scale(0.1 -0.1)">
     <use xlink:href="#LiberationSans-30"/>
     <use xlink:href="#LiberationSans-2e" x="55.615234"/>
     <use xlink:href="#LiberationSans-39" x="83.398438"/>
     <use xlink:href="#LiberationSans-30" x="139.013672"/>
    </g>
   </g>
   <g id="text_17">
    <g id="patch_15">
     <path d="M 766.639965 389.002313 
L 786.100903 389.002313 
Q 789.100903 389.002313 789.100903 386.002313 
L 789.100903 376.680438 
Q 789.100903 373.680438 786.100903 373.680438 
L 766.639965 373.680438 
Q 763.639965 373.680438 763.639965 376.680438 
L 763.639965 386.002313 
Q 763.639965 389.002313 766.639965 389.002313 
z
" style="fill: #ffffff; opacity: 0.8; stroke: #000000; stroke-width: 0.3; stroke-linejoin: miter"/>
    </g>
    <!-- 0.91 -->
    <g style="fill: #262626" transform="translate(766.639965 383.927313) scale(0.1 -0.1)">
     <use xlink:href="#LiberationSans-30"/>
     <use xlink:href="#LiberationSans-2e" x="55.615234"/>
     <use xlink:href="#LiberationSans-39" x="83.398438"/>
     <use xlink:href="#LiberationSans-31" x="139.013672"/>
    </g>
   </g>
   <g id="text_18">
    <g id="patch_16">
     <path d="M 766.203854 486.978313 
L 785.664791 486.978313 
Q 788.664791 486.978313 788.664791 483.978313 
L 788.664791 474.656438 
Q 788.664791 471.656438 785.664791 471.656438 
L 766.203854 471.656438 
Q 763.203854 471.656438 763.203854 474.656438 
L 763.203854 483.978313 
Q 763.203854 486.978313 766.203854 486.978313 
z
" style="fill: #ffffff; opacity: 0.8; stroke: #000000; stroke-width: 0.3; stroke-linejoin: miter"/>
    </g>
    <!-- 0.91 -->
    <g style="fill: #262626" transform="translate(766.203854 481.903313) scale(0.1 -0.1)">
     <use xlink:href="#LiberationSans-30"/>
     <use xlink:href="#LiberationSans-2e" x="55.615234"/>
     <use xlink:href="#LiberationSans-39" x="83.398438"/>
     <use xlink:href="#LiberationSans-31" x="139.013672"/>
    </g>
   </g>
   <g id="text_19">
    <!-- Character Belief Distributions -->
    <g style="fill: #262626" transform="translate(399.855937 17.345625) scale(0.14 -0.14)">
     <defs>
      <path id="LiberationSans-44" d="M 4316 2247 
Q 4316 1566 4050 1055 
Q 3784 544 3296 272 
Q 2809 0 2172 0 
L 525 0 
L 525 4403 
L 1981 4403 
Q 3100 4403 3708 3842 
Q 4316 3281 4316 2247 
z
M 3716 2247 
Q 3716 3066 3267 3495 
Q 2819 3925 1969 3925 
L 1122 3925 
L 1122 478 
L 2103 478 
Q 2588 478 2955 690 
Q 3322 903 3519 1303 
Q 3716 1703 3716 2247 
z
" transform="scale(0.015625)"/>
     </defs>
     <use xlink:href="#LiberationSans-43"/>
     <use xlink:href="#LiberationSans-68" x="72.216797"/>
     <use xlink:href="#LiberationSans-61" x="127.832031"/>
     <use xlink:href="#LiberationSans-72" x="183.447266"/>
     <use xlink:href="#LiberationSans-61" x="216.748047"/>
     <use xlink:href="#LiberationSans-63" x="272.363281"/>
     <use xlink:href="#LiberationSans-74" x="322.363281"/>
     <use xlink:href="#LiberationSans-65" x="350.146484"/>
     <use xlink:href="#LiberationSans-72" x="405.761719"/>
     <use xlink:href="#LiberationSans-20" x="439.0625"/>
     <use xlink:href="#LiberationSans-42" x="466.845703"/>
     <use xlink:href="#LiberationSans-65" x="533.544922"/>
     <use xlink:href="#LiberationSans-6c" x="589.160156"/>
     <use xlink:href="#LiberationSans-69" x="611.376953"/>
     <use xlink:href="#LiberationSans-65" x="633.59375"/>
     <use xlink:href="#LiberationSans-66" x="689.208984"/>
     <use xlink:href="#LiberationSans-20" x="716.992188"/>
     <use xlink:href="#LiberationSans-44" x="744.775391"/>
     <use xlink:href="#LiberationSans-69" x="816.992188"/>
     <use xlink:href="#LiberationSans-73" x="839.208984"/>
     <use xlink:href="#LiberationSans-74" x="889.208984"/>
     <use xlink:href="#LiberationSans-72" x="916.992188"/>
     <use xlink:href="#LiberationSans-69" x="950.292969"/>
     <use xlink:href="#LiberationSans-62" x="972.509766"/>
     <use xlink:href="#LiberationSans-75" x="1028.125"/>
     <use xlink:href="#LiberationSans-74" x="1083.740234"/>
     <use xlink:href="#LiberationSans-69" x="1111.523438"/>
     <use xlink:href="#LiberationSans-6f" x="1133.740234"/>
     <use xlink:href="#LiberationSans-6e" x="1189.355469"/>
     <use xlink:href="#LiberationSans-73" x="1244.970703"/>
    </g>
    <!-- (Justice Kavanaugh Assessment of Appellant) -->
    <g style="fill: #262626" transform="translate(348.478125 32.425375) scale(0.14 -0.14)">
     <defs>
      <path id="LiberationSans-4a" d="M 1428 -63 
Q 309 -63 100 1094 
L 684 1191 
Q 741 828 937 625 
Q 1134 422 1431 422 
Q 1756 422 1943 645 
Q 2131 869 2131 1300 
L 2131 3916 
L 1284 3916 
L 1284 4403 
L 2725 4403 
L 2725 1313 
Q 2725 672 2378 304 
Q 2031 -63 1428 -63 
z
" transform="scale(0.015625)"/>
      <path id="LiberationSans-4b" d="M 3456 0 
L 1697 2125 
L 1122 1688 
L 1122 0 
L 525 0 
L 525 4403 
L 1122 4403 
L 1122 2197 
L 3244 4403 
L 3947 4403 
L 2072 2491 
L 4197 0 
L 3456 0 
z
" transform="scale(0.015625)"/>
     </defs>
     <use xlink:href="#LiberationSans-28"/>
     <use xlink:href="#LiberationSans-4a" x="33.300781"/>
     <use xlink:href="#LiberationSans-75" x="83.300781"/>
     <use xlink:href="#LiberationSans-73" x="138.916016"/>
     <use xlink:href="#LiberationSans-74" x="188.916016"/>
     <use xlink:href="#LiberationSans-69" x="216.699219"/>
     <use xlink:href="#LiberationSans-63" x="238.916016"/>
     <use xlink:href="#LiberationSans-65" x="288.916016"/>
     <use xlink:href="#LiberationSans-20" x="344.53125"/>
     <use xlink:href="#LiberationSans-4b" x="372.314453"/>
     <use xlink:href="#LiberationSans-61" x="439.013672"/>
     <use xlink:href="#LiberationSans-76" x="494.628906"/>
     <use xlink:href="#LiberationSans-61" x="544.628906"/>
     <use xlink:href="#LiberationSans-6e" x="600.244141"/>
     <use xlink:href="#LiberationSans-61" x="655.859375"/>
     <use xlink:href="#LiberationSans-75" x="711.474609"/>
     <use xlink:href="#LiberationSans-67" x="767.089844"/>
     <use xlink:href="#LiberationSans-68" x="822.705078"/>
     <use xlink:href="#LiberationSans-20" x="878.320312"/>
     <use xlink:href="#LiberationSans-41" x="900.603516"/>
     <use xlink:href="#LiberationSans-73" x="967.302734"/>
     <use xlink:href="#LiberationSans-73" x="1017.302734"/>
     <use xlink:href="#LiberationSans-65" x="1067.302734"/>
     <use xlink:href="#LiberationSans-73" x="1122.917969"/>
     <use xlink:href="#LiberationSans-73" x="1172.917969"/>
     <use xlink:href="#LiberationSans-6d" x="1222.917969"/>
     <use xlink:href="#LiberationSans-65" x="1306.21875"/>
     <use xlink:href="#LiberationSans-6e" x="1361.833984"/>
     <use xlink:href="#LiberationSans-74" x="1417.449219"/>
     <use xlink:href="#LiberationSans-20" x="1445.232422"/>
     <use xlink:href="#LiberationSans-6f" x="1473.015625"/>
     <use xlink:href="#LiberationSans-66" x="1528.630859"/>
     <use xlink:href="#LiberationSans-20" x="1556.414062"/>
     <use xlink:href="#LiberationSans-41" x="1578.697266"/>
     <use xlink:href="#LiberationSans-70" x="1645.396484"/>
     <use xlink:href="#LiberationSans-70" x="1701.011719"/>
     <use xlink:href="#LiberationSans-65" x="1756.626953"/>
     <use xlink:href="#LiberationSans-6c" x="1812.242188"/>
     <use xlink:href="#LiberationSans-6c" x="1834.458984"/>
     <use xlink:href="#LiberationSans-61" x="1856.675781"/>
     <use xlink:href="#LiberationSans-6e" x="1912.291016"/>
     <use xlink:href="#LiberationSans-74" x="1967.90625"/>
     <use xlink:href="#LiberationSans-29" x="1995.689453"/>
    </g>
   </g>
  </g>
 </g>
 <defs>
  <clipPath id="p1dd7b9717c">
   <rect x="138.339375" y="38.425375" width="704.32" height="489.88"/>
  </clipPath>
 </defs>
</svg>
