<?xml version="1.0" encoding="utf-8" standalone="no"?>
<!DOCTYPE svg PUBLIC "-//W3C//DTD SVG 1.1//EN"
  "http://www.w3.org/Graphics/SVG/1.1/DTD/svg11.dtd">
<svg xmlns:xlink="http://www.w3.org/1999/xlink" width="712.935937pt" height="280.272188pt" viewBox="0 0 712.935937 280.272188" xmlns="http://www.w3.org/2000/svg" version="1.1">
 <metadata>
  <rdf:RDF xmlns:dc="http://purl.org/dc/elements/1.1/" xmlns:cc="http://creativecommons.org/ns#" xmlns:rdf="http://www.w3.org/1999/02/22-rdf-syntax-ns#">
   <cc:Work>
    <dc:type rdf:resource="http://purl.org/dc/dcmitype/StillImage"/>
    <dc:date>2025-07-31T16:21:57.881639</dc:date>
    <dc:format>image/svg+xml</dc:format>
    <dc:creator>
     <cc:Agent>
      <dc:title>Matplotlib v3.8.4, https://matplotlib.org/</dc:title>
     </cc:Agent>
    </dc:creator>
   </cc:Work>
  </rdf:RDF>
 </metadata>
 <defs>
  <style type="text/css">*{stroke-linejoin: round; stroke-linecap: butt}</style>
 </defs>
 <g id="figure_1">
  <g id="patch_1">
   <path d="M 0 280.272188 
L 712.935937 280.272188 
L 712.935937 0 
L 0 0 
z
" style="fill: #ffffff"/>
  </g>
  <g id="axes_1">
   <g id="patch_2">
    <path d="M 39.575938 242.49625 
L 328.545938 242.49625 
L 328.545938 21.89625 
L 39.575938 21.89625 
z
" style="fill: #eaeaf2"/>
   </g>
   <g id="matplotlib.axis_1">
    <g id="xtick_1">
     <g id="line2d_1">
      <path d="M 70.118475 242.49625 
L 70.118475 21.89625 
" clip-path="url(#p3efd9ff43c)" style="fill: none; stroke: #ffffff; stroke-linecap: round"/>
     </g>
     <g id="line2d_2"/>
     <g id="text_1">
      <!-- 2 -->
      <g style="fill: #262626" transform="translate(67.338006 256.743125) scale(0.1 -0.1)">
       <defs>
        <path id="LiberationSans-32" d="M 322 0 
L 322 397 
Q 481 763 711 1042 
Q 941 1322 1194 1548 
Q 1447 1775 1695 1969 
Q 1944 2163 2144 2356 
Q 2344 2550 2467 2762 
Q 2591 2975 2591 3244 
Q 2591 3606 2378 3806 
Q 2166 4006 1788 4006 
Q 1428 4006 1195 3811 
Q 963 3616 922 3263 
L 347 3316 
Q 409 3844 795 4156 
Q 1181 4469 1788 4469 
Q 2453 4469 2811 4155 
Q 3169 3841 3169 3263 
Q 3169 3006 3051 2753 
Q 2934 2500 2703 2247 
Q 2472 1994 1819 1463 
Q 1459 1169 1246 933 
Q 1034 697 941 478 
L 3238 478 
L 3238 0 
L 322 0 
z
" transform="scale(0.015625)"/>
       </defs>
       <use xlink:href="#LiberationSans-32"/>
      </g>
     </g>
    </g>
    <g id="xtick_2">
     <g id="line2d_3">
      <path d="M 110.800028 242.49625 
L 110.800028 21.89625 
" clip-path="url(#p3efd9ff43c)" style="fill: none; stroke: #ffffff; stroke-linecap: round"/>
     </g>
     <g id="line2d_4"/>
     <g id="text_2">
      <!-- 4 -->
      <g style="fill: #262626" transform="translate(108.019559 256.743125) scale(0.1 -0.1)">
       <defs>
        <path id="LiberationSans-34" d="M 2753 997 
L 2753 0 
L 2222 0 
L 2222 997 
L 147 997 
L 147 1434 
L 2163 4403 
L 2753 4403 
L 2753 1441 
L 3372 1441 
L 3372 997 
L 2753 997 
z
M 2222 3769 
Q 2216 3750 2134 3603 
Q 2053 3456 2013 3397 
L 884 1734 
L 716 1503 
L 666 1441 
L 2222 1441 
L 2222 3769 
z
" transform="scale(0.015625)"/>
       </defs>
       <use xlink:href="#LiberationSans-34"/>
      </g>
     </g>
    </g>
    <g id="xtick_3">
     <g id="line2d_5">
      <path d="M 151.48158 242.49625 
L 151.48158 21.89625 
" clip-path="url(#p3efd9ff43c)" style="fill: none; stroke: #ffffff; stroke-linecap: round"/>
     </g>
     <g id="line2d_6"/>
     <g id="text_3">
      <!-- 6 -->
      <g style="fill: #262626" transform="translate(148.701112 256.743125) scale(0.1 -0.1)">
       <defs>
        <path id="LiberationSans-36" d="M 3278 1441 
Q 3278 744 2900 340 
Q 2522 -63 1856 -63 
Q 1113 -63 719 490 
Q 325 1044 325 2100 
Q 325 3244 734 3856 
Q 1144 4469 1900 4469 
Q 2897 4469 3156 3572 
L 2619 3475 
Q 2453 4013 1894 4013 
Q 1413 4013 1148 3564 
Q 884 3116 884 2266 
Q 1038 2550 1316 2698 
Q 1594 2847 1953 2847 
Q 2563 2847 2920 2465 
Q 3278 2084 3278 1441 
z
M 2706 1416 
Q 2706 1894 2472 2153 
Q 2238 2413 1819 2413 
Q 1425 2413 1183 2183 
Q 941 1953 941 1550 
Q 941 1041 1192 716 
Q 1444 391 1838 391 
Q 2244 391 2475 664 
Q 2706 938 2706 1416 
z
" transform="scale(0.015625)"/>
       </defs>
       <use xlink:href="#LiberationSans-36"/>
      </g>
     </g>
    </g>
    <g id="xtick_4">
     <g id="line2d_7">
      <path d="M 192.163133 242.49625 
L 192.163133 21.89625 
" clip-path="url(#p3efd9ff43c)" style="fill: none; stroke: #ffffff; stroke-linecap: round"/>
     </g>
     <g id="line2d_8"/>
     <g id="text_4">
      <!-- 8 -->
      <g style="fill: #262626" transform="translate(189.382664 256.743125) scale(0.1 -0.1)">
       <defs>
        <path id="LiberationSans-38" d="M 3281 1228 
Q 3281 619 2893 278 
Q 2506 -63 1781 -63 
Q 1075 -63 676 271 
Q 278 606 278 1222 
Q 278 1653 525 1947 
Q 772 2241 1156 2303 
L 1156 2316 
Q 797 2400 589 2681 
Q 381 2963 381 3341 
Q 381 3844 757 4156 
Q 1134 4469 1769 4469 
Q 2419 4469 2795 4162 
Q 3172 3856 3172 3334 
Q 3172 2956 2962 2675 
Q 2753 2394 2391 2322 
L 2391 2309 
Q 2813 2241 3047 1952 
Q 3281 1663 3281 1228 
z
M 2588 3303 
Q 2588 4050 1769 4050 
Q 1372 4050 1164 3862 
Q 956 3675 956 3303 
Q 956 2925 1170 2726 
Q 1384 2528 1775 2528 
Q 2172 2528 2380 2711 
Q 2588 2894 2588 3303 
z
M 2697 1281 
Q 2697 1691 2453 1898 
Q 2209 2106 1769 2106 
Q 1341 2106 1100 1882 
Q 859 1659 859 1269 
Q 859 359 1788 359 
Q 2247 359 2472 579 
Q 2697 800 2697 1281 
z
" transform="scale(0.015625)"/>
       </defs>
       <use xlink:href="#LiberationSans-38"/>
      </g>
     </g>
    </g>
    <g id="xtick_5">
     <g id="line2d_9">
      <path d="M 232.844685 242.49625 
L 232.844685 21.89625 
" clip-path="url(#p3efd9ff43c)" style="fill: none; stroke: #ffffff; stroke-linecap: round"/>
     </g>
     <g id="line2d_10"/>
     <g id="text_5">
      <!-- 10 -->
      <g style="fill: #262626" transform="translate(227.283748 256.743125) scale(0.1 -0.1)">
       <defs>
        <path id="LiberationSans-31" d="M 488 0 
L 488 478 
L 1609 478 
L 1609 3866 
L 616 3156 
L 616 3688 
L 1656 4403 
L 2175 4403 
L 2175 478 
L 3247 478 
L 3247 0 
L 488 0 
z
" transform="scale(0.015625)"/>
        <path id="LiberationSans-30" d="M 3309 2203 
Q 3309 1100 2920 518 
Q 2531 -63 1772 -63 
Q 1013 -63 631 515 
Q 250 1094 250 2203 
Q 250 3338 620 3903 
Q 991 4469 1791 4469 
Q 2569 4469 2939 3897 
Q 3309 3325 3309 2203 
z
M 2738 2203 
Q 2738 3156 2517 3584 
Q 2297 4013 1791 4013 
Q 1272 4013 1045 3591 
Q 819 3169 819 2203 
Q 819 1266 1048 831 
Q 1278 397 1778 397 
Q 2275 397 2506 840 
Q 2738 1284 2738 2203 
z
" transform="scale(0.015625)"/>
       </defs>
       <use xlink:href="#LiberationSans-31"/>
       <use xlink:href="#LiberationSans-30" x="55.615234"/>
      </g>
     </g>
    </g>
    <g id="xtick_6">
     <g id="line2d_11">
      <path d="M 273.526238 242.49625 
L 273.526238 21.89625 
" clip-path="url(#p3efd9ff43c)" style="fill: none; stroke: #ffffff; stroke-linecap: round"/>
     </g>
     <g id="line2d_12"/>
     <g id="text_6">
      <!-- 12 -->
      <g style="fill: #262626" transform="translate(267.965301 256.743125) scale(0.1 -0.1)">
       <use xlink:href="#LiberationSans-31"/>
       <use xlink:href="#LiberationSans-32" x="55.615234"/>
      </g>
     </g>
    </g>
    <g id="xtick_7">
     <g id="line2d_13">
      <path d="M 314.207791 242.49625 
L 314.207791 21.89625 
" clip-path="url(#p3efd9ff43c)" style="fill: none; stroke: #ffffff; stroke-linecap: round"/>
     </g>
     <g id="line2d_14"/>
     <g id="text_7">
      <!-- 14 -->
      <g style="fill: #262626" transform="translate(308.646853 256.743125) scale(0.1 -0.1)">
       <use xlink:href="#LiberationSans-31"/>
       <use xlink:href="#LiberationSans-34" x="55.615234"/>
      </g>
     </g>
    </g>
    <g id="text_8">
     <!-- Runtime (seconds) -->
     <g style="fill: #262626" transform="translate(137.907344 270.789688) scale(0.11 -0.11)">
      <defs>
       <path id="LiberationSans-52" d="M 3638 0 
L 2494 1828 
L 1122 1828 
L 1122 0 
L 525 0 
L 525 4403 
L 2597 4403 
Q 3341 4403 3745 4070 
Q 4150 3738 4150 3144 
Q 4150 2653 3864 2318 
Q 3578 1984 3075 1897 
L 4325 0 
L 3638 0 
z
M 3550 3138 
Q 3550 3522 3289 3723 
Q 3028 3925 2538 3925 
L 1122 3925 
L 1122 2300 
L 2563 2300 
Q 3034 2300 3292 2520 
Q 3550 2741 3550 3138 
z
" transform="scale(0.015625)"/>
       <path id="LiberationSans-75" d="M 981 3381 
L 981 1238 
Q 981 903 1047 718 
Q 1113 534 1256 453 
Q 1400 372 1678 372 
Q 2084 372 2318 650 
Q 2553 928 2553 1422 
L 2553 3381 
L 3116 3381 
L 3116 722 
Q 3116 131 3134 0 
L 2603 0 
Q 2600 16 2597 84 
Q 2594 153 2589 242 
Q 2584 331 2578 578 
L 2569 578 
Q 2375 228 2120 82 
Q 1866 -63 1488 -63 
Q 931 -63 673 214 
Q 416 491 416 1128 
L 416 3381 
L 981 3381 
z
" transform="scale(0.015625)"/>
       <path id="LiberationSans-6e" d="M 2578 0 
L 2578 2144 
Q 2578 2478 2512 2662 
Q 2447 2847 2303 2928 
Q 2159 3009 1881 3009 
Q 1475 3009 1240 2731 
Q 1006 2453 1006 1959 
L 1006 0 
L 444 0 
L 444 2659 
Q 444 3250 425 3381 
L 956 3381 
Q 959 3366 962 3297 
Q 966 3228 970 3139 
Q 975 3050 981 2803 
L 991 2803 
Q 1184 3153 1439 3298 
Q 1694 3444 2072 3444 
Q 2628 3444 2886 3167 
Q 3144 2891 3144 2253 
L 3144 0 
L 2578 0 
z
" transform="scale(0.015625)"/>
       <path id="LiberationSans-74" d="M 1731 25 
Q 1453 -50 1163 -50 
Q 488 -50 488 716 
L 488 2972 
L 97 2972 
L 97 3381 
L 509 3381 
L 675 4138 
L 1050 4138 
L 1050 3381 
L 1675 3381 
L 1675 2972 
L 1050 2972 
L 1050 838 
Q 1050 594 1129 495 
Q 1209 397 1406 397 
Q 1519 397 1731 441 
L 1731 25 
z
" transform="scale(0.015625)"/>
       <path id="LiberationSans-69" d="M 428 4100 
L 428 4638 
L 991 4638 
L 991 4100 
L 428 4100 
z
M 428 0 
L 428 3381 
L 991 3381 
L 991 0 
L 428 0 
z
" transform="scale(0.015625)"/>
       <path id="LiberationSans-6d" d="M 2400 0 
L 2400 2144 
Q 2400 2634 2265 2821 
Q 2131 3009 1781 3009 
Q 1422 3009 1212 2734 
Q 1003 2459 1003 1959 
L 1003 0 
L 444 0 
L 444 2659 
Q 444 3250 425 3381 
L 956 3381 
Q 959 3366 962 3297 
Q 966 3228 970 3139 
Q 975 3050 981 2803 
L 991 2803 
Q 1172 3163 1406 3303 
Q 1641 3444 1978 3444 
Q 2363 3444 2586 3291 
Q 2809 3138 2897 2803 
L 2906 2803 
Q 3081 3144 3329 3294 
Q 3578 3444 3931 3444 
Q 4444 3444 4676 3166 
Q 4909 2888 4909 2253 
L 4909 0 
L 4353 0 
L 4353 2144 
Q 4353 2634 4218 2821 
Q 4084 3009 3734 3009 
Q 3366 3009 3161 2736 
Q 2956 2463 2956 1959 
L 2956 0 
L 2400 0 
z
" transform="scale(0.015625)"/>
       <path id="LiberationSans-65" d="M 863 1572 
Q 863 991 1103 675 
Q 1344 359 1806 359 
Q 2172 359 2392 506 
Q 2613 653 2691 878 
L 3184 738 
Q 2881 -63 1806 -63 
Q 1056 -63 664 384 
Q 272 831 272 1713 
Q 272 2550 664 2997 
Q 1056 3444 1784 3444 
Q 3275 3444 3275 1647 
L 3275 1572 
L 863 1572 
z
M 2694 2003 
Q 2647 2538 2422 2783 
Q 2197 3028 1775 3028 
Q 1366 3028 1127 2754 
Q 888 2481 869 2003 
L 2694 2003 
z
" transform="scale(0.015625)"/>
       <path id="LiberationSans-20" transform="scale(0.015625)"/>
       <path id="LiberationSans-28" d="M 397 1663 
Q 397 2566 680 3284 
Q 963 4003 1550 4638 
L 2094 4638 
Q 1509 3988 1236 3256 
Q 963 2525 963 1656 
Q 963 791 1233 62 
Q 1503 -666 2094 -1325 
L 1550 -1325 
Q 959 -688 678 32 
Q 397 753 397 1650 
L 397 1663 
z
" transform="scale(0.015625)"/>
       <path id="LiberationSans-73" d="M 2969 934 
Q 2969 456 2608 196 
Q 2247 -63 1597 -63 
Q 966 -63 623 145 
Q 281 353 178 794 
L 675 891 
Q 747 619 972 492 
Q 1197 366 1597 366 
Q 2025 366 2223 497 
Q 2422 628 2422 891 
Q 2422 1091 2284 1216 
Q 2147 1341 1841 1422 
L 1438 1528 
Q 953 1653 748 1773 
Q 544 1894 428 2066 
Q 313 2238 313 2488 
Q 313 2950 642 3192 
Q 972 3434 1603 3434 
Q 2163 3434 2492 3237 
Q 2822 3041 2909 2606 
L 2403 2544 
Q 2356 2769 2151 2889 
Q 1947 3009 1603 3009 
Q 1222 3009 1040 2893 
Q 859 2778 859 2544 
Q 859 2400 934 2306 
Q 1009 2213 1156 2147 
Q 1303 2081 1775 1966 
Q 2222 1853 2419 1758 
Q 2616 1663 2730 1547 
Q 2844 1431 2906 1279 
Q 2969 1128 2969 934 
z
" transform="scale(0.015625)"/>
       <path id="LiberationSans-63" d="M 859 1706 
Q 859 1031 1071 706 
Q 1284 381 1713 381 
Q 2013 381 2214 543 
Q 2416 706 2463 1044 
L 3031 1006 
Q 2966 519 2616 228 
Q 2266 -63 1728 -63 
Q 1019 -63 645 385 
Q 272 834 272 1694 
Q 272 2547 647 2995 
Q 1022 3444 1722 3444 
Q 2241 3444 2583 3175 
Q 2925 2906 3013 2434 
L 2434 2391 
Q 2391 2672 2212 2837 
Q 2034 3003 1706 3003 
Q 1259 3003 1059 2706 
Q 859 2409 859 1706 
z
" transform="scale(0.015625)"/>
       <path id="LiberationSans-6f" d="M 3291 1694 
Q 3291 806 2900 371 
Q 2509 -63 1766 -63 
Q 1025 -63 647 389 
Q 269 841 269 1694 
Q 269 3444 1784 3444 
Q 2559 3444 2925 3017 
Q 3291 2591 3291 1694 
z
M 2700 1694 
Q 2700 2394 2492 2711 
Q 2284 3028 1794 3028 
Q 1300 3028 1079 2704 
Q 859 2381 859 1694 
Q 859 1025 1076 689 
Q 1294 353 1759 353 
Q 2266 353 2483 678 
Q 2700 1003 2700 1694 
z
" transform="scale(0.015625)"/>
       <path id="LiberationSans-64" d="M 2566 544 
Q 2409 219 2151 78 
Q 1894 -63 1513 -63 
Q 872 -63 570 368 
Q 269 800 269 1675 
Q 269 3444 1513 3444 
Q 1897 3444 2153 3303 
Q 2409 3163 2566 2856 
L 2572 2856 
L 2566 3234 
L 2566 4638 
L 3128 4638 
L 3128 697 
Q 3128 169 3147 0 
L 2609 0 
Q 2600 50 2589 231 
Q 2578 413 2578 544 
L 2566 544 
z
M 859 1694 
Q 859 984 1046 678 
Q 1234 372 1656 372 
Q 2134 372 2350 703 
Q 2566 1034 2566 1731 
Q 2566 2403 2350 2715 
Q 2134 3028 1663 3028 
Q 1238 3028 1048 2714 
Q 859 2400 859 1694 
z
" transform="scale(0.015625)"/>
       <path id="LiberationSans-29" d="M 1734 1650 
Q 1734 747 1451 28 
Q 1169 -691 581 -1325 
L 38 -1325 
Q 625 -669 897 57 
Q 1169 784 1169 1656 
Q 1169 2528 895 3256 
Q 622 3984 38 4638 
L 581 4638 
Q 1172 4000 1453 3279 
Q 1734 2559 1734 1663 
L 1734 1650 
z
" transform="scale(0.015625)"/>
      </defs>
      <use xlink:href="#LiberationSans-52"/>
      <use xlink:href="#LiberationSans-75" x="72.216797"/>
      <use xlink:href="#LiberationSans-6e" x="127.832031"/>
      <use xlink:href="#LiberationSans-74" x="183.447266"/>
      <use xlink:href="#LiberationSans-69" x="211.230469"/>
      <use xlink:href="#LiberationSans-6d" x="233.447266"/>
      <use xlink:href="#LiberationSans-65" x="316.748047"/>
      <use xlink:href="#LiberationSans-20" x="372.363281"/>
      <use xlink:href="#LiberationSans-28" x="400.146484"/>
      <use xlink:href="#LiberationSans-73" x="433.447266"/>
      <use xlink:href="#LiberationSans-65" x="483.447266"/>
      <use xlink:href="#LiberationSans-63" x="539.0625"/>
      <use xlink:href="#LiberationSans-6f" x="589.0625"/>
      <use xlink:href="#LiberationSans-6e" x="644.677734"/>
      <use xlink:href="#LiberationSans-64" x="700.292969"/>
      <use xlink:href="#LiberationSans-73" x="755.908203"/>
      <use xlink:href="#LiberationSans-29" x="805.908203"/>
     </g>
    </g>
   </g>
   <g id="matplotlib.axis_2">
    <g id="ytick_1">
     <g id="line2d_15">
      <path d="M 39.575938 242.49625 
L 328.545938 242.49625 
" clip-path="url(#p3efd9ff43c)" style="fill: none; stroke: #ffffff; stroke-linecap: round"/>
     </g>
     <g id="line2d_16"/>
     <g id="text_9">
      <!-- 0 -->
      <g style="fill: #262626" transform="translate(27.015 246.119688) scale(0.1 -0.1)">
       <use xlink:href="#LiberationSans-30"/>
      </g>
     </g>
    </g>
    <g id="ytick_2">
     <g id="line2d_17">
      <path d="M 39.575938 211.599891 
L 328.545938 211.599891 
" clip-path="url(#p3efd9ff43c)" style="fill: none; stroke: #ffffff; stroke-linecap: round"/>
     </g>
     <g id="line2d_18"/>
     <g id="text_10">
      <!-- 5 -->
      <g style="fill: #262626" transform="translate(27.015 215.223329) scale(0.1 -0.1)">
       <defs>
        <path id="LiberationSans-35" d="M 3291 1434 
Q 3291 738 2877 337 
Q 2463 -63 1728 -63 
Q 1113 -63 734 206 
Q 356 475 256 984 
L 825 1050 
Q 1003 397 1741 397 
Q 2194 397 2450 670 
Q 2706 944 2706 1422 
Q 2706 1838 2448 2094 
Q 2191 2350 1753 2350 
Q 1525 2350 1328 2278 
Q 1131 2206 934 2034 
L 384 2034 
L 531 4403 
L 3034 4403 
L 3034 3925 
L 1044 3925 
L 959 2528 
Q 1325 2809 1869 2809 
Q 2519 2809 2905 2428 
Q 3291 2047 3291 1434 
z
" transform="scale(0.015625)"/>
       </defs>
       <use xlink:href="#LiberationSans-35"/>
      </g>
     </g>
    </g>
    <g id="ytick_3">
     <g id="line2d_19">
      <path d="M 39.575938 180.703533 
L 328.545938 180.703533 
" clip-path="url(#p3efd9ff43c)" style="fill: none; stroke: #ffffff; stroke-linecap: round"/>
     </g>
     <g id="line2d_20"/>
     <g id="text_11">
      <!-- 10 -->
      <g style="fill: #262626" transform="translate(21.454063 184.32697) scale(0.1 -0.1)">
       <use xlink:href="#LiberationSans-31"/>
       <use xlink:href="#LiberationSans-30" x="55.615234"/>
      </g>
     </g>
    </g>
    <g id="ytick_4">
     <g id="line2d_21">
      <path d="M 39.575938 149.807174 
L 328.545938 149.807174 
" clip-path="url(#p3efd9ff43c)" style="fill: none; stroke: #ffffff; stroke-linecap: round"/>
     </g>
     <g id="line2d_22"/>
     <g id="text_12">
      <!-- 15 -->
      <g style="fill: #262626" transform="translate(21.454063 153.430612) scale(0.1 -0.1)">
       <use xlink:href="#LiberationSans-31"/>
       <use xlink:href="#LiberationSans-35" x="55.615234"/>
      </g>
     </g>
    </g>
    <g id="ytick_5">
     <g id="line2d_23">
      <path d="M 39.575938 118.910816 
L 328.545938 118.910816 
" clip-path="url(#p3efd9ff43c)" style="fill: none; stroke: #ffffff; stroke-linecap: round"/>
     </g>
     <g id="line2d_24"/>
     <g id="text_13">
      <!-- 20 -->
      <g style="fill: #262626" transform="translate(21.454063 122.534253) scale(0.1 -0.1)">
       <use xlink:href="#LiberationSans-32"/>
       <use xlink:href="#LiberationSans-30" x="55.615234"/>
      </g>
     </g>
    </g>
    <g id="ytick_6">
     <g id="line2d_25">
      <path d="M 39.575938 88.014457 
L 328.545938 88.014457 
" clip-path="url(#p3efd9ff43c)" style="fill: none; stroke: #ffffff; stroke-linecap: round"/>
     </g>
     <g id="line2d_26"/>
     <g id="text_14">
      <!-- 25 -->
      <g style="fill: #262626" transform="translate(21.454063 91.637895) scale(0.1 -0.1)">
       <use xlink:href="#LiberationSans-32"/>
       <use xlink:href="#LiberationSans-35" x="55.615234"/>
      </g>
     </g>
    </g>
    <g id="ytick_7">
     <g id="line2d_27">
      <path d="M 39.575938 57.118099 
L 328.545938 57.118099 
" clip-path="url(#p3efd9ff43c)" style="fill: none; stroke: #ffffff; stroke-linecap: round"/>
     </g>
     <g id="line2d_28"/>
     <g id="text_15">
      <!-- 30 -->
      <g style="fill: #262626" transform="translate(21.454063 60.741536) scale(0.1 -0.1)">
       <defs>
        <path id="LiberationSans-33" d="M 3278 1216 
Q 3278 606 2890 271 
Q 2503 -63 1784 -63 
Q 1116 -63 717 239 
Q 319 541 244 1131 
L 825 1184 
Q 938 403 1784 403 
Q 2209 403 2451 612 
Q 2694 822 2694 1234 
Q 2694 1594 2417 1795 
Q 2141 1997 1619 1997 
L 1300 1997 
L 1300 2484 
L 1606 2484 
Q 2069 2484 2323 2686 
Q 2578 2888 2578 3244 
Q 2578 3597 2370 3801 
Q 2163 4006 1753 4006 
Q 1381 4006 1151 3815 
Q 922 3625 884 3278 
L 319 3322 
Q 381 3863 767 4166 
Q 1153 4469 1759 4469 
Q 2422 4469 2789 4161 
Q 3156 3853 3156 3303 
Q 3156 2881 2920 2617 
Q 2684 2353 2234 2259 
L 2234 2247 
Q 2728 2194 3003 1916 
Q 3278 1638 3278 1216 
z
" transform="scale(0.015625)"/>
       </defs>
       <use xlink:href="#LiberationSans-33"/>
       <use xlink:href="#LiberationSans-30" x="55.615234"/>
      </g>
     </g>
    </g>
    <g id="ytick_8">
     <g id="line2d_29">
      <path d="M 39.575938 26.22174 
L 328.545938 26.22174 
" clip-path="url(#p3efd9ff43c)" style="fill: none; stroke: #ffffff; stroke-linecap: round"/>
     </g>
     <g id="line2d_30"/>
     <g id="text_16">
      <!-- 35 -->
      <g style="fill: #262626" transform="translate(21.454063 29.845178) scale(0.1 -0.1)">
       <use xlink:href="#LiberationSans-33"/>
       <use xlink:href="#LiberationSans-35" x="55.615234"/>
      </g>
     </g>
    </g>
    <g id="text_17">
     <!-- Frequency -->
     <g style="fill: #262626" transform="translate(15.171563 158.179453) rotate(-90) scale(0.11 -0.11)">
      <defs>
       <path id="LiberationSans-46" d="M 1122 3916 
L 1122 2278 
L 3578 2278 
L 3578 1784 
L 1122 1784 
L 1122 0 
L 525 0 
L 525 4403 
L 3653 4403 
L 3653 3916 
L 1122 3916 
z
" transform="scale(0.015625)"/>
       <path id="LiberationSans-72" d="M 444 0 
L 444 2594 
Q 444 2950 425 3381 
L 956 3381 
Q 981 2806 981 2691 
L 994 2691 
Q 1128 3125 1303 3284 
Q 1478 3444 1797 3444 
Q 1909 3444 2025 3413 
L 2025 2897 
Q 1913 2928 1725 2928 
Q 1375 2928 1190 2626 
Q 1006 2325 1006 1763 
L 1006 0 
L 444 0 
z
" transform="scale(0.015625)"/>
       <path id="LiberationSans-71" d="M 1513 -63 
Q 869 -63 569 371 
Q 269 806 269 1675 
Q 269 3444 1513 3444 
Q 1897 3444 2147 3308 
Q 2397 3172 2566 2856 
L 2572 2856 
Q 2572 2950 2584 3179 
Q 2597 3409 2609 3425 
L 3150 3425 
Q 3128 3241 3128 2503 
L 3128 -1328 
L 2566 -1328 
L 2566 44 
L 2578 556 
L 2572 556 
Q 2403 222 2156 79 
Q 1909 -63 1513 -63 
z
M 2566 1731 
Q 2566 2391 2350 2709 
Q 2134 3028 1663 3028 
Q 1234 3028 1046 2709 
Q 859 2391 859 1694 
Q 859 984 1048 678 
Q 1238 372 1656 372 
Q 2134 372 2350 712 
Q 2566 1053 2566 1731 
z
" transform="scale(0.015625)"/>
       <path id="LiberationSans-79" d="M 597 -1328 
Q 366 -1328 209 -1294 
L 209 -872 
Q 328 -891 472 -891 
Q 997 -891 1303 -119 
L 1356 16 
L 16 3381 
L 616 3381 
L 1328 1513 
Q 1344 1469 1366 1408 
Q 1388 1347 1506 1000 
Q 1625 653 1634 613 
L 1853 1228 
L 2594 3381 
L 3188 3381 
L 1888 0 
Q 1678 -541 1497 -805 
Q 1316 -1069 1095 -1198 
Q 875 -1328 597 -1328 
z
" transform="scale(0.015625)"/>
      </defs>
      <use xlink:href="#LiberationSans-46"/>
      <use xlink:href="#LiberationSans-72" x="61.083984"/>
      <use xlink:href="#LiberationSans-65" x="94.384766"/>
      <use xlink:href="#LiberationSans-71" x="150"/>
      <use xlink:href="#LiberationSans-75" x="205.615234"/>
      <use xlink:href="#LiberationSans-65" x="261.230469"/>
      <use xlink:href="#LiberationSans-6e" x="316.845703"/>
      <use xlink:href="#LiberationSans-63" x="372.460938"/>
      <use xlink:href="#LiberationSans-79" x="422.460938"/>
     </g>
    </g>
   </g>
   <g id="patch_3">
    <path d="M 52.710938 242.49625 
L 65.845938 242.49625 
L 65.845938 32.401012 
L 52.710938 32.401012 
z
" clip-path="url(#p3efd9ff43c)" style="fill: #f77189; fill-opacity: 0.75; stroke: #000000; stroke-width: 0.3; stroke-linejoin: miter"/>
   </g>
   <g id="patch_4">
    <path d="M 65.845938 242.49625 
L 78.980938 242.49625 
L 78.980938 57.118099 
L 65.845938 57.118099 
z
" clip-path="url(#p3efd9ff43c)" style="fill: #f77189; fill-opacity: 0.75; stroke: #000000; stroke-width: 0.3; stroke-linejoin: miter"/>
   </g>
   <g id="patch_5">
    <path d="M 78.980937 242.49625 
L 92.115938 242.49625 
L 92.115938 186.882805 
L 78.980937 186.882805 
z
" clip-path="url(#p3efd9ff43c)" style="fill: #f77189; fill-opacity: 0.75; stroke: #000000; stroke-width: 0.3; stroke-linejoin: miter"/>
   </g>
   <g id="patch_6">
    <path d="M 92.115938 242.49625 
L 105.250937 242.49625 
L 105.250937 217.779163 
L 92.115938 217.779163 
z
" clip-path="url(#p3efd9ff43c)" style="fill: #f77189; fill-opacity: 0.75; stroke: #000000; stroke-width: 0.3; stroke-linejoin: miter"/>
   </g>
   <g id="patch_7">
    <path d="M 105.250937 242.49625 
L 118.385937 242.49625 
L 118.385937 236.316978 
L 105.250937 236.316978 
z
" clip-path="url(#p3efd9ff43c)" style="fill: #f77189; fill-opacity: 0.75; stroke: #000000; stroke-width: 0.3; stroke-linejoin: miter"/>
   </g>
   <g id="patch_8">
    <path d="M 118.385937 242.49625 
L 131.520938 242.49625 
L 131.520938 242.49625 
L 118.385937 242.49625 
z
" clip-path="url(#p3efd9ff43c)" style="fill: #f77189; fill-opacity: 0.75; stroke: #000000; stroke-width: 0.3; stroke-linejoin: miter"/>
   </g>
   <g id="patch_9">
    <path d="M 131.520938 242.49625 
L 144.655937 242.49625 
L 144.655937 236.316978 
L 131.520938 236.316978 
z
" clip-path="url(#p3efd9ff43c)" style="fill: #f77189; fill-opacity: 0.75; stroke: #000000; stroke-width: 0.3; stroke-linejoin: miter"/>
   </g>
   <g id="patch_10">
    <path d="M 144.655937 242.49625 
L 157.790937 242.49625 
L 157.790937 242.49625 
L 144.655937 242.49625 
z
" clip-path="url(#p3efd9ff43c)" style="fill: #f77189; fill-opacity: 0.75; stroke: #000000; stroke-width: 0.3; stroke-linejoin: miter"/>
   </g>
   <g id="patch_11">
    <path d="M 157.790937 242.49625 
L 170.925937 242.49625 
L 170.925937 242.49625 
L 157.790937 242.49625 
z
" clip-path="url(#p3efd9ff43c)" style="fill: #f77189; fill-opacity: 0.75; stroke: #000000; stroke-width: 0.3; stroke-linejoin: miter"/>
   </g>
   <g id="patch_12">
    <path d="M 170.925937 242.49625 
L 184.060937 242.49625 
L 184.060937 242.49625 
L 170.925937 242.49625 
z
" clip-path="url(#p3efd9ff43c)" style="fill: #f77189; fill-opacity: 0.75; stroke: #000000; stroke-width: 0.3; stroke-linejoin: miter"/>
   </g>
   <g id="patch_13">
    <path d="M 184.060937 242.49625 
L 197.195937 242.49625 
L 197.195937 242.49625 
L 184.060937 242.49625 
z
" clip-path="url(#p3efd9ff43c)" style="fill: #f77189; fill-opacity: 0.75; stroke: #000000; stroke-width: 0.3; stroke-linejoin: miter"/>
   </g>
   <g id="patch_14">
    <path d="M 197.195937 242.49625 
L 210.330938 242.49625 
L 210.330938 236.316978 
L 197.195937 236.316978 
z
" clip-path="url(#p3efd9ff43c)" style="fill: #f77189; fill-opacity: 0.75; stroke: #000000; stroke-width: 0.3; stroke-linejoin: miter"/>
   </g>
   <g id="patch_15">
    <path d="M 210.330938 242.49625 
L 223.465937 242.49625 
L 223.465937 242.49625 
L 210.330938 242.49625 
z
" clip-path="url(#p3efd9ff43c)" style="fill: #f77189; fill-opacity: 0.75; stroke: #000000; stroke-width: 0.3; stroke-linejoin: miter"/>
   </g>
   <g id="patch_16">
    <path d="M 223.465937 242.49625 
L 236.600937 242.49625 
L 236.600937 242.49625 
L 223.465937 242.49625 
z
" clip-path="url(#p3efd9ff43c)" style="fill: #f77189; fill-opacity: 0.75; stroke: #000000; stroke-width: 0.3; stroke-linejoin: miter"/>
   </g>
   <g id="patch_17">
    <path d="M 236.600938 242.49625 
L 249.735937 242.49625 
L 249.735937 242.49625 
L 236.600938 242.49625 
z
" clip-path="url(#p3efd9ff43c)" style="fill: #f77189; fill-opacity: 0.75; stroke: #000000; stroke-width: 0.3; stroke-linejoin: miter"/>
   </g>
   <g id="patch_18">
    <path d="M 249.735937 242.49625 
L 262.870937 242.49625 
L 262.870937 242.49625 
L 249.735937 242.49625 
z
" clip-path="url(#p3efd9ff43c)" style="fill: #f77189; fill-opacity: 0.75; stroke: #000000; stroke-width: 0.3; stroke-linejoin: miter"/>
   </g>
   <g id="patch_19">
    <path d="M 262.870937 242.49625 
L 276.005937 242.49625 
L 276.005937 242.49625 
L 262.870937 242.49625 
z
" clip-path="url(#p3efd9ff43c)" style="fill: #f77189; fill-opacity: 0.75; stroke: #000000; stroke-width: 0.3; stroke-linejoin: miter"/>
   </g>
   <g id="patch_20">
    <path d="M 276.005938 242.49625 
L 289.140938 242.49625 
L 289.140938 242.49625 
L 276.005938 242.49625 
z
" clip-path="url(#p3efd9ff43c)" style="fill: #f77189; fill-opacity: 0.75; stroke: #000000; stroke-width: 0.3; stroke-linejoin: miter"/>
   </g>
   <g id="patch_21">
    <path d="M 289.140937 242.49625 
L 302.275937 242.49625 
L 302.275937 230.137707 
L 289.140937 230.137707 
z
" clip-path="url(#p3efd9ff43c)" style="fill: #f77189; fill-opacity: 0.75; stroke: #000000; stroke-width: 0.3; stroke-linejoin: miter"/>
   </g>
   <g id="patch_22">
    <path d="M 302.275937 242.49625 
L 315.410937 242.49625 
L 315.410937 236.316978 
L 302.275937 236.316978 
z
" clip-path="url(#p3efd9ff43c)" style="fill: #f77189; fill-opacity: 0.75; stroke: #000000; stroke-width: 0.3; stroke-linejoin: miter"/>
   </g>
   <g id="patch_23">
    <path d="M 39.575938 242.49625 
L 39.575938 21.89625 
" style="fill: none"/>
   </g>
   <g id="patch_24">
    <path d="M 328.545938 242.49625 
L 328.545938 21.89625 
" style="fill: none"/>
   </g>
   <g id="patch_25">
    <path d="M 39.575938 242.49625 
L 328.545937 242.49625 
" style="fill: none"/>
   </g>
   <g id="patch_26">
    <path d="M 39.575938 21.89625 
L 328.545937 21.89625 
" style="fill: none"/>
   </g>
   <g id="text_18">
    <!-- Response Time Distribution -->
    <g style="fill: #262626" transform="translate(110.69875 15.89625) scale(0.12 -0.12)">
     <defs>
      <path id="LiberationSans-70" d="M 3291 1706 
Q 3291 -63 2047 -63 
Q 1266 -63 997 525 
L 981 525 
Q 994 500 994 -6 
L 994 -1328 
L 431 -1328 
L 431 2691 
Q 431 3213 413 3381 
L 956 3381 
Q 959 3369 965 3292 
Q 972 3216 980 3056 
Q 988 2897 988 2838 
L 1000 2838 
Q 1150 3150 1397 3295 
Q 1644 3441 2047 3441 
Q 2672 3441 2981 3022 
Q 3291 2603 3291 1706 
z
M 2700 1694 
Q 2700 2400 2509 2703 
Q 2319 3006 1903 3006 
Q 1569 3006 1380 2865 
Q 1191 2725 1092 2426 
Q 994 2128 994 1650 
Q 994 984 1206 668 
Q 1419 353 1897 353 
Q 2316 353 2508 661 
Q 2700 969 2700 1694 
z
" transform="scale(0.015625)"/>
      <path id="LiberationSans-54" d="M 2250 3916 
L 2250 0 
L 1656 0 
L 1656 3916 
L 144 3916 
L 144 4403 
L 3763 4403 
L 3763 3916 
L 2250 3916 
z
" transform="scale(0.015625)"/>
      <path id="LiberationSans-44" d="M 4316 2247 
Q 4316 1566 4050 1055 
Q 3784 544 3296 272 
Q 2809 0 2172 0 
L 525 0 
L 525 4403 
L 1981 4403 
Q 3100 4403 3708 3842 
Q 4316 3281 4316 2247 
z
M 3716 2247 
Q 3716 3066 3267 3495 
Q 2819 3925 1969 3925 
L 1122 3925 
L 1122 478 
L 2103 478 
Q 2588 478 2955 690 
Q 3322 903 3519 1303 
Q 3716 1703 3716 2247 
z
" transform="scale(0.015625)"/>
      <path id="LiberationSans-62" d="M 3291 1706 
Q 3291 -63 2047 -63 
Q 1663 -63 1408 76 
Q 1153 216 994 525 
L 988 525 
Q 988 428 975 229 
Q 963 31 956 0 
L 413 0 
Q 431 169 431 697 
L 431 4638 
L 994 4638 
L 994 3316 
Q 994 3113 981 2838 
L 994 2838 
Q 1150 3163 1408 3303 
Q 1666 3444 2047 3444 
Q 2688 3444 2989 3012 
Q 3291 2581 3291 1706 
z
M 2700 1688 
Q 2700 2397 2512 2703 
Q 2325 3009 1903 3009 
Q 1428 3009 1211 2684 
Q 994 2359 994 1653 
Q 994 988 1206 670 
Q 1419 353 1897 353 
Q 2322 353 2511 667 
Q 2700 981 2700 1688 
z
" transform="scale(0.015625)"/>
     </defs>
     <use xlink:href="#LiberationSans-52"/>
     <use xlink:href="#LiberationSans-65" x="72.216797"/>
     <use xlink:href="#LiberationSans-73" x="127.832031"/>
     <use xlink:href="#LiberationSans-70" x="177.832031"/>
     <use xlink:href="#LiberationSans-6f" x="233.447266"/>
     <use xlink:href="#LiberationSans-6e" x="289.0625"/>
     <use xlink:href="#LiberationSans-73" x="344.677734"/>
     <use xlink:href="#LiberationSans-65" x="394.677734"/>
     <use xlink:href="#LiberationSans-20" x="450.292969"/>
     <use xlink:href="#LiberationSans-54" x="476.326172"/>
     <use xlink:href="#LiberationSans-69" x="533.660156"/>
     <use xlink:href="#LiberationSans-6d" x="555.876953"/>
     <use xlink:href="#LiberationSans-65" x="639.177734"/>
     <use xlink:href="#LiberationSans-20" x="694.792969"/>
     <use xlink:href="#LiberationSans-44" x="722.576172"/>
     <use xlink:href="#LiberationSans-69" x="794.792969"/>
     <use xlink:href="#LiberationSans-73" x="817.009766"/>
     <use xlink:href="#LiberationSans-74" x="867.009766"/>
     <use xlink:href="#LiberationSans-72" x="894.792969"/>
     <use xlink:href="#LiberationSans-69" x="928.09375"/>
     <use xlink:href="#LiberationSans-62" x="950.310547"/>
     <use xlink:href="#LiberationSans-75" x="1005.925781"/>
     <use xlink:href="#LiberationSans-74" x="1061.541016"/>
     <use xlink:href="#LiberationSans-69" x="1089.324219"/>
     <use xlink:href="#LiberationSans-6f" x="1111.541016"/>
     <use xlink:href="#LiberationSans-6e" x="1167.15625"/>
    </g>
   </g>
  </g>
  <g id="axes_2">
   <g id="patch_27">
    <path d="M 416.765938 242.49625 
L 705.735938 242.49625 
L 705.735938 21.89625 
L 416.765938 21.89625 
z
" style="fill: #eaeaf2"/>
   </g>
   <g id="matplotlib.axis_3">
    <g id="xtick_8">
     <g id="line2d_31">
      <path d="M 447.308475 242.49625 
L 447.308475 21.89625 
" clip-path="url(#pd28c25e528)" style="fill: none; stroke: #ffffff; stroke-linecap: round"/>
     </g>
     <g id="line2d_32"/>
     <g id="text_19">
      <!-- 2 -->
      <g style="fill: #262626" transform="translate(444.528006 256.743125) scale(0.1 -0.1)">
       <use xlink:href="#LiberationSans-32"/>
      </g>
     </g>
    </g>
    <g id="xtick_9">
     <g id="line2d_33">
      <path d="M 487.990028 242.49625 
L 487.990028 21.89625 
" clip-path="url(#pd28c25e528)" style="fill: none; stroke: #ffffff; stroke-linecap: round"/>
     </g>
     <g id="line2d_34"/>
     <g id="text_20">
      <!-- 4 -->
      <g style="fill: #262626" transform="translate(485.209559 256.743125) scale(0.1 -0.1)">
       <use xlink:href="#LiberationSans-34"/>
      </g>
     </g>
    </g>
    <g id="xtick_10">
     <g id="line2d_35">
      <path d="M 528.67158 242.49625 
L 528.67158 21.89625 
" clip-path="url(#pd28c25e528)" style="fill: none; stroke: #ffffff; stroke-linecap: round"/>
     </g>
     <g id="line2d_36"/>
     <g id="text_21">
      <!-- 6 -->
      <g style="fill: #262626" transform="translate(525.891112 256.743125) scale(0.1 -0.1)">
       <use xlink:href="#LiberationSans-36"/>
      </g>
     </g>
    </g>
    <g id="xtick_11">
     <g id="line2d_37">
      <path d="M 569.353133 242.49625 
L 569.353133 21.89625 
" clip-path="url(#pd28c25e528)" style="fill: none; stroke: #ffffff; stroke-linecap: round"/>
     </g>
     <g id="line2d_38"/>
     <g id="text_22">
      <!-- 8 -->
      <g style="fill: #262626" transform="translate(566.572664 256.743125) scale(0.1 -0.1)">
       <use xlink:href="#LiberationSans-38"/>
      </g>
     </g>
    </g>
    <g id="xtick_12">
     <g id="line2d_39">
      <path d="M 610.034685 242.49625 
L 610.034685 21.89625 
" clip-path="url(#pd28c25e528)" style="fill: none; stroke: #ffffff; stroke-linecap: round"/>
     </g>
     <g id="line2d_40"/>
     <g id="text_23">
      <!-- 10 -->
      <g style="fill: #262626" transform="translate(604.473748 256.743125) scale(0.1 -0.1)">
       <use xlink:href="#LiberationSans-31"/>
       <use xlink:href="#LiberationSans-30" x="55.615234"/>
      </g>
     </g>
    </g>
    <g id="xtick_13">
     <g id="line2d_41">
      <path d="M 650.716238 242.49625 
L 650.716238 21.89625 
" clip-path="url(#pd28c25e528)" style="fill: none; stroke: #ffffff; stroke-linecap: round"/>
     </g>
     <g id="line2d_42"/>
     <g id="text_24">
      <!-- 12 -->
      <g style="fill: #262626" transform="translate(645.155301 256.743125) scale(0.1 -0.1)">
       <use xlink:href="#LiberationSans-31"/>
       <use xlink:href="#LiberationSans-32" x="55.615234"/>
      </g>
     </g>
    </g>
    <g id="xtick_14">
     <g id="line2d_43">
      <path d="M 691.397791 242.49625 
L 691.397791 21.89625 
" clip-path="url(#pd28c25e528)" style="fill: none; stroke: #ffffff; stroke-linecap: round"/>
     </g>
     <g id="line2d_44"/>
     <g id="text_25">
      <!-- 14 -->
      <g style="fill: #262626" transform="translate(685.836853 256.743125) scale(0.1 -0.1)">
       <use xlink:href="#LiberationSans-31"/>
       <use xlink:href="#LiberationSans-34" x="55.615234"/>
      </g>
     </g>
    </g>
    <g id="text_26">
     <!-- Runtime (seconds) -->
     <g style="fill: #262626" transform="translate(515.097344 270.789688) scale(0.11 -0.11)">
      <use xlink:href="#LiberationSans-52"/>
      <use xlink:href="#LiberationSans-75" x="72.216797"/>
      <use xlink:href="#LiberationSans-6e" x="127.832031"/>
      <use xlink:href="#LiberationSans-74" x="183.447266"/>
      <use xlink:href="#LiberationSans-69" x="211.230469"/>
      <use xlink:href="#LiberationSans-6d" x="233.447266"/>
      <use xlink:href="#LiberationSans-65" x="316.748047"/>
      <use xlink:href="#LiberationSans-20" x="372.363281"/>
      <use xlink:href="#LiberationSans-28" x="400.146484"/>
      <use xlink:href="#LiberationSans-73" x="433.447266"/>
      <use xlink:href="#LiberationSans-65" x="483.447266"/>
      <use xlink:href="#LiberationSans-63" x="539.0625"/>
      <use xlink:href="#LiberationSans-6f" x="589.0625"/>
      <use xlink:href="#LiberationSans-6e" x="644.677734"/>
      <use xlink:href="#LiberationSans-64" x="700.292969"/>
      <use xlink:href="#LiberationSans-73" x="755.908203"/>
      <use xlink:href="#LiberationSans-29" x="805.908203"/>
     </g>
    </g>
   </g>
   <g id="matplotlib.axis_4">
    <g id="ytick_9">
     <g id="line2d_45"/>
     <g id="text_27">
      <!-- judge-gpt-4o -->
      <g style="fill: #262626" transform="translate(353.619062 135.819688) scale(0.1 -0.1)">
       <defs>
        <path id="LiberationSans-6a" d="M 428 4100 
L 428 4638 
L 991 4638 
L 991 4100 
L 428 4100 
z
M 991 -419 
Q 991 -897 803 -1112 
Q 616 -1328 241 -1328 
Q 0 -1328 -156 -1300 
L -156 -866 
L 38 -884 
Q 253 -884 340 -771 
Q 428 -659 428 -334 
L 428 3381 
L 991 3381 
L 991 -419 
z
" transform="scale(0.015625)"/>
        <path id="LiberationSans-67" d="M 1713 -1328 
Q 1159 -1328 831 -1111 
Q 503 -894 409 -494 
L 975 -413 
Q 1031 -647 1223 -773 
Q 1416 -900 1728 -900 
Q 2569 -900 2569 84 
L 2569 628 
L 2563 628 
Q 2403 303 2125 139 
Q 1847 -25 1475 -25 
Q 853 -25 561 387 
Q 269 800 269 1684 
Q 269 2581 583 3007 
Q 897 3434 1538 3434 
Q 1897 3434 2161 3270 
Q 2425 3106 2569 2803 
L 2575 2803 
Q 2575 2897 2587 3128 
Q 2600 3359 2613 3381 
L 3147 3381 
Q 3128 3213 3128 2681 
L 3128 97 
Q 3128 -1328 1713 -1328 
z
M 2569 1691 
Q 2569 2103 2456 2401 
Q 2344 2700 2139 2858 
Q 1934 3016 1675 3016 
Q 1244 3016 1047 2703 
Q 850 2391 850 1691 
Q 850 997 1034 694 
Q 1219 391 1666 391 
Q 1931 391 2137 547 
Q 2344 703 2456 995 
Q 2569 1288 2569 1691 
z
" transform="scale(0.015625)"/>
        <path id="LiberationSans-2d" d="M 284 1450 
L 284 1950 
L 1847 1950 
L 1847 1450 
L 284 1450 
z
" transform="scale(0.015625)"/>
       </defs>
       <use xlink:href="#LiberationSans-6a"/>
       <use xlink:href="#LiberationSans-75" x="22.216797"/>
       <use xlink:href="#LiberationSans-64" x="77.832031"/>
       <use xlink:href="#LiberationSans-67" x="133.447266"/>
       <use xlink:href="#LiberationSans-65" x="189.0625"/>
       <use xlink:href="#LiberationSans-2d" x="244.677734"/>
       <use xlink:href="#LiberationSans-67" x="277.978516"/>
       <use xlink:href="#LiberationSans-70" x="333.59375"/>
       <use xlink:href="#LiberationSans-74" x="389.208984"/>
       <use xlink:href="#LiberationSans-2d" x="416.992188"/>
       <use xlink:href="#LiberationSans-34" x="450.292969"/>
       <use xlink:href="#LiberationSans-6f" x="505.908203"/>
      </g>
     </g>
    </g>
    <g id="text_28">
     <!-- Model -->
     <g style="fill: #262626" transform="translate(347.336562 147.175156) rotate(-90) scale(0.11 -0.11)">
      <defs>
       <path id="LiberationSans-4d" d="M 4269 0 
L 4269 2938 
Q 4269 3425 4297 3875 
Q 4144 3316 4022 3000 
L 2884 0 
L 2466 0 
L 1313 3000 
L 1138 3531 
L 1034 3875 
L 1044 3528 
L 1056 2938 
L 1056 0 
L 525 0 
L 525 4403 
L 1309 4403 
L 2481 1350 
Q 2544 1166 2601 955 
Q 2659 744 2678 650 
Q 2703 775 2783 1029 
Q 2863 1284 2891 1350 
L 4041 4403 
L 4806 4403 
L 4806 0 
L 4269 0 
z
" transform="scale(0.015625)"/>
       <path id="LiberationSans-6c" d="M 431 0 
L 431 4638 
L 994 4638 
L 994 0 
L 431 0 
z
" transform="scale(0.015625)"/>
      </defs>
      <use xlink:href="#LiberationSans-4d"/>
      <use xlink:href="#LiberationSans-6f" x="83.300781"/>
      <use xlink:href="#LiberationSans-64" x="138.916016"/>
      <use xlink:href="#LiberationSans-65" x="194.53125"/>
      <use xlink:href="#LiberationSans-6c" x="250.146484"/>
     </g>
    </g>
   </g>
   <g id="patch_28">
    <path d="M 440.658297 43.95625 
L 440.658297 220.43625 
L 452.912547 220.43625 
L 452.912547 43.95625 
L 440.658297 43.95625 
z
" clip-path="url(#pd28c25e528)" style="fill: #e68193; stroke: #6c6c6c; stroke-linejoin: miter"/>
   </g>
   <g id="line2d_46">
    <path d="M 440.658297 132.19625 
L 429.900937 132.19625 
" clip-path="url(#pd28c25e528)" style="fill: none; stroke: #6c6c6c"/>
   </g>
   <g id="line2d_47">
    <path d="M 452.912547 132.19625 
L 470.196616 132.19625 
" clip-path="url(#pd28c25e528)" style="fill: none; stroke: #6c6c6c"/>
   </g>
   <g id="line2d_48">
    <path d="M 429.900937 88.07625 
L 429.900937 176.31625 
" clip-path="url(#pd28c25e528)" style="fill: none; stroke: #6c6c6c; stroke-linecap: round"/>
   </g>
   <g id="line2d_49">
    <path d="M 470.196616 88.07625 
L 470.196616 176.31625 
" clip-path="url(#pd28c25e528)" style="fill: none; stroke: #6c6c6c; stroke-linecap: round"/>
   </g>
   <g id="line2d_50">
    <defs>
     <path id="m5a73647597" d="M 0 3.5 
C 0.928211 3.5 1.81853 3.131218 2.474874 2.474874 
C 3.131218 1.81853 3.5 0.928211 3.5 0 
C 3.5 -0.928211 3.131218 -1.81853 2.474874 -2.474874 
C 1.81853 -3.131218 0.928211 -3.5 0 -3.5 
C -0.928211 -3.5 -1.81853 -3.131218 -2.474874 -2.474874 
C -3.131218 -1.81853 -3.5 -0.928211 -3.5 0 
C -3.5 0.928211 -3.131218 1.81853 -2.474874 2.474874 
C -1.81853 3.131218 -0.928211 3.5 0 3.5 
z
" style="stroke: #6c6c6c"/>
    </defs>
    <g clip-path="url(#pd28c25e528)">
     <use xlink:href="#m5a73647597" x="671.230466" y="132.19625" style="fill-opacity: 0; stroke: #6c6c6c"/>
     <use xlink:href="#m5a73647597" x="667.459" y="132.19625" style="fill-opacity: 0; stroke: #6c6c6c"/>
     <use xlink:href="#m5a73647597" x="692.600938" y="132.19625" style="fill-opacity: 0; stroke: #6c6c6c"/>
     <use xlink:href="#m5a73647597" x="482.928534" y="132.19625" style="fill-opacity: 0; stroke: #6c6c6c"/>
     <use xlink:href="#m5a73647597" x="585.345232" y="132.19625" style="fill-opacity: 0; stroke: #6c6c6c"/>
     <use xlink:href="#m5a73647597" x="514.30358" y="132.19625" style="fill-opacity: 0; stroke: #6c6c6c"/>
     <use xlink:href="#m5a73647597" x="472.432513" y="132.19625" style="fill-opacity: 0; stroke: #6c6c6c"/>
     <use xlink:href="#m5a73647597" x="473.350721" y="132.19625" style="fill-opacity: 0; stroke: #6c6c6c"/>
     <use xlink:href="#m5a73647597" x="480.84585" y="132.19625" style="fill-opacity: 0; stroke: #6c6c6c"/>
    </g>
   </g>
   <g id="line2d_51">
    <path d="M 444.898961 43.95625 
L 444.898961 220.43625 
" clip-path="url(#pd28c25e528)" style="fill: none; stroke: #6c6c6c"/>
   </g>
   <g id="patch_29">
    <path d="M 416.765938 242.49625 
L 416.765938 21.89625 
" style="fill: none"/>
   </g>
   <g id="patch_30">
    <path d="M 705.735938 242.49625 
L 705.735938 21.89625 
" style="fill: none"/>
   </g>
   <g id="patch_31">
    <path d="M 416.765938 242.49625 
L 705.735938 242.49625 
" style="fill: none"/>
   </g>
   <g id="patch_32">
    <path d="M 416.765938 21.89625 
L 705.735938 21.89625 
" style="fill: none"/>
   </g>
   <g id="text_29">
    <!-- Runtime by Model -->
    <g style="fill: #262626" transform="translate(512.899375 15.89625) scale(0.12 -0.12)">
     <use xlink:href="#LiberationSans-52"/>
     <use xlink:href="#LiberationSans-75" x="72.216797"/>
     <use xlink:href="#LiberationSans-6e" x="127.832031"/>
     <use xlink:href="#LiberationSans-74" x="183.447266"/>
     <use xlink:href="#LiberationSans-69" x="211.230469"/>
     <use xlink:href="#LiberationSans-6d" x="233.447266"/>
     <use xlink:href="#LiberationSans-65" x="316.748047"/>
     <use xlink:href="#LiberationSans-20" x="372.363281"/>
     <use xlink:href="#LiberationSans-62" x="400.146484"/>
     <use xlink:href="#LiberationSans-79" x="455.761719"/>
     <use xlink:href="#LiberationSans-20" x="505.761719"/>
     <use xlink:href="#LiberationSans-4d" x="533.544922"/>
     <use xlink:href="#LiberationSans-6f" x="616.845703"/>
     <use xlink:href="#LiberationSans-64" x="672.460938"/>
     <use xlink:href="#LiberationSans-65" x="728.076172"/>
     <use xlink:href="#LiberationSans-6c" x="783.691406"/>
    </g>
   </g>
  </g>
 </g>
 <defs>
  <clipPath id="p3efd9ff43c">
   <rect x="39.575938" y="21.89625" width="288.97" height="220.6"/>
  </clipPath>
  <clipPath id="pd28c25e528">
   <rect x="416.765938" y="21.89625" width="288.97" height="220.6"/>
  </clipPath>
 </defs>
</svg>
